<svg xmlns="http://www.w3.org/2000/svg" xmlns:xlink="http://www.w3.org/1999/xlink" width="600" zoomAndPan="magnify" viewBox="0 0 450 149.999998" height="200" preserveAspectRatio="xMidYMid meet" version="1.0"><defs><g/><clipPath id="b5effa3074"><path d="M 31 44 L 125 44 L 125 129 L 31 129 Z M 31 44 " clip-rule="nonzero"/></clipPath><clipPath id="c6ecf2a4c9"><path d="M 22.113281 14.117188 L 130.964844 26.011719 L 119.074219 134.863281 L 10.21875 122.96875 Z M 22.113281 14.117188 " clip-rule="nonzero"/></clipPath><clipPath id="9958e0e8d9"><path d="M 22.113281 14.117188 L 130.964844 26.011719 L 119.074219 134.863281 L 10.21875 122.96875 Z M 22.113281 14.117188 " clip-rule="nonzero"/></clipPath><clipPath id="061d43e8c6"><path d="M 15 19 L 123 19 L 123 120 L 15 120 Z M 15 19 " clip-rule="nonzero"/></clipPath><clipPath id="fd0c0271e1"><path d="M 22.113281 14.117188 L 130.964844 26.011719 L 119.074219 134.863281 L 10.21875 122.96875 Z M 22.113281 14.117188 " clip-rule="nonzero"/></clipPath><clipPath id="216648942d"><path d="M 22.113281 14.117188 L 130.964844 26.011719 L 119.074219 134.863281 L 10.21875 122.96875 Z M 22.113281 14.117188 " clip-rule="nonzero"/></clipPath><clipPath id="90e8d42d25"><path d="M 23.667969 27.757812 L 117.269531 27.757812 L 117.269531 121.359375 L 23.667969 121.359375 Z M 23.667969 27.757812 " clip-rule="nonzero"/></clipPath><clipPath id="73cf5f65bf"><path d="M 70.46875 27.757812 C 44.621094 27.757812 23.667969 48.710938 23.667969 74.558594 C 23.667969 100.40625 44.621094 121.359375 70.46875 121.359375 C 96.316406 121.359375 117.269531 100.40625 117.269531 74.558594 C 117.269531 48.710938 96.316406 27.757812 70.46875 27.757812 Z M 70.46875 27.757812 " clip-rule="nonzero"/></clipPath><clipPath id="24b4127d5f"><path d="M 0.667969 0.757812 L 94.269531 0.757812 L 94.269531 94.359375 L 0.667969 94.359375 Z M 0.667969 0.757812 " clip-rule="nonzero"/></clipPath><clipPath id="8959c2cac8"><path d="M 47.46875 0.757812 C 21.621094 0.757812 0.667969 21.710938 0.667969 47.558594 C 0.667969 73.40625 21.621094 94.359375 47.46875 94.359375 C 73.316406 94.359375 94.269531 73.40625 94.269531 47.558594 C 94.269531 21.710938 73.316406 0.757812 47.46875 0.757812 Z M 47.46875 0.757812 " clip-rule="nonzero"/></clipPath><clipPath id="c857b1966d"><rect x="0" width="95" y="0" height="95"/></clipPath><clipPath id="8fa43dfadd"><path d="M 221.035156 68.140625 L 237.375 68.140625 L 237.375 78.34375 L 221.035156 78.34375 Z M 221.035156 68.140625 " clip-rule="nonzero"/></clipPath><clipPath id="7e814a6d23"><path d="M 226.136719 68.140625 L 232.242188 68.140625 C 235.0625 68.140625 237.34375 70.421875 237.34375 73.242188 C 237.34375 76.058594 235.0625 78.34375 232.242188 78.34375 L 226.136719 78.34375 C 223.320312 78.34375 221.035156 76.058594 221.035156 73.242188 C 221.035156 70.421875 223.320312 68.140625 226.136719 68.140625 Z M 226.136719 68.140625 " clip-rule="nonzero"/></clipPath><clipPath id="a105a4be66"><path d="M 0.0351562 0.140625 L 16.359375 0.140625 L 16.359375 10.34375 L 0.0351562 10.34375 Z M 0.0351562 0.140625 " clip-rule="nonzero"/></clipPath><clipPath id="c59b31e643"><path d="M 5.136719 0.140625 L 11.242188 0.140625 C 14.0625 0.140625 16.34375 2.421875 16.34375 5.242188 C 16.34375 8.058594 14.0625 10.34375 11.242188 10.34375 L 5.136719 10.34375 C 2.320312 10.34375 0.0351562 8.058594 0.0351562 5.242188 C 0.0351562 2.421875 2.320312 0.140625 5.136719 0.140625 Z M 5.136719 0.140625 " clip-rule="nonzero"/></clipPath><clipPath id="6654ea17f6"><rect x="0" width="17" y="0" height="11"/></clipPath><clipPath id="e0d8dcd211"><path d="M 240 70 L 245 70 L 245 75 L 240 75 Z M 240 70 " clip-rule="nonzero"/></clipPath><clipPath id="151bdf1602"><path d="M 244.796875 72.730469 L 243.300781 74.554688 L 240.03125 71.871094 L 241.527344 70.046875 Z M 244.796875 72.730469 " clip-rule="nonzero"/></clipPath><clipPath id="9c19dc2f63"><path d="M 244.050781 73.640625 C 243.636719 74.144531 242.890625 74.21875 242.386719 73.804688 L 240.945312 72.621094 C 240.441406 72.207031 240.367188 71.464844 240.78125 70.960938 C 241.191406 70.457031 241.9375 70.382812 242.441406 70.796875 L 243.886719 71.980469 C 244.386719 72.394531 244.460938 73.136719 244.050781 73.640625 Z M 244.050781 73.640625 " clip-rule="nonzero"/></clipPath><clipPath id="15cf48a94f"><path d="M 0.238281 0.320312 L 4.558594 0.320312 L 4.558594 4.398438 L 0.238281 4.398438 Z M 0.238281 0.320312 " clip-rule="nonzero"/></clipPath><clipPath id="ee0a2e8d11"><path d="M 4.796875 2.730469 L 3.300781 4.554688 L 0.03125 1.871094 L 1.527344 0.046875 Z M 4.796875 2.730469 " clip-rule="nonzero"/></clipPath><clipPath id="159dea74e3"><path d="M 4.050781 3.640625 C 3.636719 4.144531 2.890625 4.21875 2.386719 3.804688 L 0.945312 2.621094 C 0.441406 2.207031 0.367188 1.464844 0.78125 0.960938 C 1.191406 0.457031 1.9375 0.382812 2.441406 0.796875 L 3.886719 1.980469 C 4.386719 2.394531 4.460938 3.136719 4.050781 3.640625 Z M 4.050781 3.640625 " clip-rule="nonzero"/></clipPath><clipPath id="bb887a7716"><rect x="0" width="5" y="0" height="5"/></clipPath><clipPath id="cdf09044ef"><path d="M 25.425781 27.671875 L 119.925781 27.671875 L 119.925781 122.171875 L 25.425781 122.171875 Z M 25.425781 27.671875 " clip-rule="nonzero"/></clipPath></defs><g clip-path="url(#b5effa3074)"><g clip-path="url(#c6ecf2a4c9)"><g clip-path="url(#9958e0e8d9)"><path fill="#412e8f" d="M 122.964844 88.371094 C 122.140625 92.984375 121.308594 97.632812 119.632812 102.015625 C 115.179688 113.660156 104.753906 122.683594 92.722656 126.546875 C 80.695312 130.410156 67.28125 129.34375 55.539062 124.605469 C 50.621094 122.621094 45.867188 119.9375 42.382812 115.984375 C 37.890625 110.886719 35.894531 104.15625 34.308594 97.601562 C 31.601562 86.433594 29.863281 74.058594 35.460938 64.015625 C 37.21875 60.859375 42.75 52.527344 47.753906 50.898438 C 68.875 44.027344 92.597656 41 110.683594 53.847656 C 116.382812 57.894531 121.527344 63.222656 123.433594 69.867188 C 125.144531 75.867188 124.0625 82.242188 122.964844 88.371094 Z M 122.964844 88.371094 " fill-opacity="1" fill-rule="nonzero"/></g></g></g><g clip-path="url(#061d43e8c6)"><g clip-path="url(#fd0c0271e1)"><g clip-path="url(#216648942d)"><path fill="#ffffff" d="M 91.230469 36.191406 C 82.898438 32.101562 73.324219 30.613281 64.179688 32.363281 C 55.441406 34.035156 47.230469 38.433594 40.847656 44.609375 C 34.359375 50.882812 29.777344 59.007812 28.054688 67.886719 C 26.300781 76.925781 27.464844 86.566406 31.257812 94.949219 C 33.0625 98.945312 35.476562 102.71875 38.46875 105.925781 C 41.457031 109.128906 45 111.742188 48.871094 113.78125 C 57.007812 118.066406 66.554688 119.820312 75.707031 119.308594 C 84.535156 118.8125 93.28125 115.855469 100.074219 110.089844 C 106.910156 104.289062 111.375 96.183594 113.496094 87.539062 C 114.039062 85.324219 114.429688 83.074219 114.683594 80.804688 C 115.652344 71.792969 114.480469 62.371094 110.265625 54.257812 C 106.15625 46.34375 99.191406 40.097656 91.230469 36.191406 Z M 113.304688 80.652344 C 112.339844 89.363281 109.199219 97.902344 103.523438 104.664062 C 97.988281 111.257812 90.28125 115.5 81.867188 117.148438 C 73.140625 118.855469 63.777344 118.054688 55.394531 115.109375 C 51.332031 113.675781 47.464844 111.691406 44.027344 109.085938 C 40.628906 106.511719 37.765625 103.351562 35.453125 99.777344 C 30.667969 92.386719 28.359375 83.453125 28.683594 74.683594 C 29.015625 65.792969 32.15625 57.253906 37.632812 50.242188 C 42.917969 43.46875 50.199219 38.261719 58.296875 35.390625 C 66.808594 32.375 76.0625 32.285156 84.65625 35.039062 C 92.925781 37.6875 100.492188 42.792969 105.769531 49.726562 C 111.039062 56.640625 113.484375 65.375 113.617188 73.996094 C 113.652344 76.21875 113.539062 78.441406 113.304688 80.652344 Z M 100.308594 51.015625 C 100.308594 51.015625 109.027344 62.859375 106.695312 66.675781 C 105.171875 69.160156 103.527344 68.460938 102.964844 65.085938 C 102.402344 61.710938 100.691406 61.308594 99.734375 61.664062 C 97.550781 62.472656 98.003906 67.183594 101.402344 70.15625 C 104.800781 73.132812 105.125 78.660156 100.574219 81.957031 C 96.019531 85.25 97.277344 87.375 95.949219 88.886719 C 94.621094 90.394531 91.398438 92.175781 84.675781 95.9375 C 77.949219 99.703125 83.816406 89.039062 86.167969 84.558594 C 88.519531 80.082031 84.996094 71.878906 81.289062 67.449219 C 77.578125 63.019531 73.871094 64.203125 70.164062 59.773438 C 66.457031 55.34375 73.230469 55.136719 72.765625 52.480469 C 72.300781 49.824219 70.269531 50.3125 69.425781 47.378906 C 68.9375 45.683594 71.402344 44.703125 73.800781 44.117188 C 74.4375 43.960938 74.34375 43.03125 73.691406 42.996094 C 71.894531 42.898438 69.800781 42.84375 68.042969 42.964844 C 64.054688 43.242188 64.152344 49.207031 59.683594 49.15625 C 54.769531 49.097656 51.589844 44.222656 52.105469 43.855469 C 52.625 43.492188 66.644531 34.679688 82.484375 39.402344 C 93.539062 42.699219 100.308594 51.015625 100.308594 51.015625 Z M 65.65625 108.136719 C 63.511719 109.386719 59.914062 110.6875 59.914062 110.6875 C 59.914062 110.6875 44.253906 103.398438 39.128906 93.800781 C 32.605469 81.566406 35.839844 72.273438 35.839844 72.273438 C 35.839844 72.273438 44.859375 68.390625 46.59375 75.015625 C 48.324219 81.640625 49.5625 77.894531 52.996094 86.78125 C 56.429688 95.675781 55.339844 101.605469 60.785156 101.894531 C 66.230469 102.179688 67.804688 106.890625 65.65625 108.136719 Z M 96.019531 97.300781 C 93.976562 100.261719 86.609375 104.90625 90.007812 98.21875 C 90.003906 98.21875 98.066406 94.339844 96.019531 97.300781 Z M 104.617188 86.9375 C 109.296875 86.835938 108.027344 94.234375 106.183594 95.035156 C 104.972656 95.558594 105.007812 93.875 104.3125 92.980469 C 103.621094 92.085938 102.507812 94.570312 100.226562 94.3125 C 97.949219 94.046875 99.566406 92.234375 100.582031 90.089844 C 101.601562 87.9375 99.121094 87.054688 104.617188 86.9375 Z M 19.109375 103.109375 C 19.070312 103.011719 19.042969 102.910156 19.011719 102.8125 C 18.28125 100.613281 17.734375 98.347656 17.269531 96.078125 C 16.375 91.679688 15.855469 87.203125 15.71875 82.722656 C 15.542969 76.851562 16.007812 70.960938 17.285156 65.222656 C 18.769531 58.527344 21.316406 52.109375 24.925781 46.273438 C 28.921875 39.804688 34.210938 33.996094 40.351562 29.503906 C 45.515625 25.726562 51.347656 22.945312 57.550781 21.382812 C 62.921875 20.027344 68.511719 19.621094 74.039062 19.980469 C 78.785156 20.296875 83.484375 21.1875 88.054688 22.515625 C 91.359375 23.476562 94.597656 24.671875 97.722656 26.105469 C 98.992188 26.6875 100.257812 27.300781 101.460938 28.003906 C 102.230469 28.453125 101.398438 29.570312 100.636719 29.117188 C 100.5625 29.074219 100.488281 29.03125 100.414062 28.992188 C 100.632812 29.117188 100.378906 28.972656 100.269531 28.910156 C 100.136719 28.839844 100.003906 28.769531 99.875 28.699219 C 99.5 28.5 99.125 28.308594 98.75 28.125 C 97.640625 27.578125 96.515625 27.066406 95.378906 26.585938 C 91.953125 25.136719 88.410156 23.949219 84.796875 23.066406 C 80.074219 21.90625 75.21875 21.253906 70.355469 21.234375 C 64.800781 21.214844 59.210938 22.066406 53.957031 23.886719 C 47.746094 26.039062 42.085938 29.488281 37.179688 33.847656 C 31.539062 38.863281 26.820312 44.960938 23.464844 51.722656 C 20.601562 57.5 18.722656 63.722656 17.792969 70.101562 C 17 75.523438 16.867188 81.03125 17.3125 86.488281 C 17.636719 90.429688 18.242188 94.347656 19.160156 98.191406 C 19.3125 98.828125 19.472656 99.460938 19.644531 100.085938 C 19.710938 100.347656 19.78125 100.601562 19.855469 100.855469 C 19.890625 100.976562 19.921875 101.09375 19.960938 101.214844 C 19.976562 101.261719 19.988281 101.3125 20.003906 101.355469 C 20 101.359375 20 101.359375 20.003906 101.363281 C 20.125 101.757812 20.246094 102.152344 20.378906 102.539062 C 20.675781 103.382812 19.40625 103.945312 19.109375 103.109375 Z M 20.054688 110.824219 C 20.050781 110.824219 20.046875 110.820312 20.042969 110.816406 C 20.046875 110.816406 20.050781 110.816406 20.054688 110.824219 Z M 23.449219 110.347656 C 23.355469 109.992188 23.269531 109.640625 23.179688 109.285156 C 23.179688 109.28125 23.175781 109.28125 23.175781 109.273438 C 23.167969 109.21875 23.148438 109.160156 23.128906 109.113281 C 23.121094 109.097656 23.109375 109.089844 23.101562 109.082031 C 23.058594 108.988281 22.996094 108.90625 22.90625 108.835938 C 22.769531 108.734375 22.550781 108.671875 22.378906 108.710938 C 22.332031 108.71875 22.285156 108.734375 22.242188 108.753906 C 22.230469 108.757812 22.21875 108.757812 22.207031 108.761719 C 21.445312 109.015625 20.6875 109.273438 19.921875 109.527344 C 19.773438 109.578125 19.609375 109.761719 19.5625 109.910156 C 19.507812 110.0625 19.5 110.207031 19.546875 110.363281 C 19.625 110.621094 19.828125 110.785156 20.070312 110.839844 C 20.09375 110.859375 20.121094 110.875 20.140625 110.898438 C 20.144531 110.902344 20.152344 110.910156 20.160156 110.917969 C 20.175781 110.929688 20.183594 110.9375 20.1875 110.945312 C 20.253906 111.015625 20.324219 111.089844 20.390625 111.164062 C 20.714844 111.515625 21.046875 111.863281 21.476562 112.082031 C 21.71875 112.207031 22 112.25 22.269531 112.214844 C 22.601562 112.167969 22.875 111.972656 23.097656 111.726562 C 23.171875 111.648438 23.238281 111.5625 23.292969 111.46875 C 23.429688 111.246094 23.597656 110.988281 23.542969 110.714844 C 23.515625 110.582031 23.476562 110.464844 23.449219 110.347656 Z M 20.066406 110.828125 C 19.945312 110.789062 19.972656 110.761719 20.046875 110.816406 C 20.050781 110.816406 20.050781 110.824219 20.054688 110.824219 C 20.066406 110.828125 20.074219 110.828125 20.085938 110.835938 C 20.140625 110.847656 20.199219 110.847656 20.253906 110.84375 C 20.199219 110.847656 20.136719 110.851562 20.179688 110.855469 C 20.242188 110.863281 20.207031 110.890625 20.089844 110.839844 C 20.085938 110.839844 20.085938 110.839844 20.082031 110.839844 C 20.074219 110.835938 20.070312 110.832031 20.058594 110.828125 C 20.0625 110.824219 20.0625 110.824219 20.066406 110.828125 Z M 20.082031 110.835938 C 20.082031 110.835938 20.082031 110.832031 20.082031 110.835938 C 20.097656 110.839844 20.109375 110.847656 20.113281 110.847656 C 20.101562 110.847656 20.097656 110.839844 20.085938 110.839844 C 20.085938 110.835938 20.082031 110.835938 20.082031 110.835938 Z M 121.699219 40.664062 C 120.46875 39.398438 119.238281 38.132812 118.007812 36.871094 C 118.046875 35.792969 118.191406 34.726562 118.328125 33.652344 C 118.402344 33.0625 118.464844 32.476562 118.496094 31.882812 C 118.523438 31.394531 118.5625 30.871094 118.300781 30.433594 C 118.007812 29.933594 117.40625 29.734375 116.867188 29.953125 C 116.328125 30.167969 116.007812 30.679688 115.757812 31.179688 C 115.382812 31.933594 115.0625 32.722656 114.734375 33.503906 C 113.925781 32.671875 113.113281 31.84375 112.308594 31.011719 C 112.019531 30.714844 111.648438 30.40625 111.515625 29.996094 C 111.382812 29.566406 111.429688 29.078125 111.398438 28.632812 C 111.339844 27.847656 111 27.097656 110.300781 26.683594 C 108.363281 25.546875 107.476562 28.6875 107.234375 30.015625 C 106.941406 31.628906 107.597656 32.914062 108.578125 34.019531 C 107.804688 34.046875 107.03125 34.078125 106.253906 34.113281 C 105.242188 34.164062 104.226562 34.222656 103.214844 34.316406 C 102.339844 34.398438 100.761719 34.542969 101.191406 35.847656 C 101.589844 37.054688 103.226562 37.480469 104.296875 37.773438 C 105.792969 38.183594 107.292969 38.589844 108.816406 38.902344 C 110.242188 39.191406 111.75 39.265625 113.117188 39.777344 C 114.4375 40.269531 115.417969 41.296875 116.539062 42.109375 C 117.644531 42.914062 119.023438 43.546875 120.425781 43.351562 C 121.035156 43.265625 121.769531 43.011719 122.101562 42.457031 C 122.472656 41.820312 122.152344 41.148438 121.699219 40.664062 Z M 116.753906 32.359375 C 116.847656 32.136719 116.941406 31.910156 117.046875 31.691406 C 117.058594 31.671875 117.085938 31.632812 117.121094 31.585938 C 117.0625 32.910156 116.835938 34.21875 116.703125 35.535156 C 116.398438 35.21875 116.085938 34.90625 115.78125 34.585938 C 116.105469 33.847656 116.429688 33.097656 116.753906 32.359375 Z M 120.289062 41.96875 C 119.796875 42.054688 119.289062 41.96875 118.824219 41.800781 C 117.757812 41.417969 116.921875 40.652344 116.046875 39.957031 C 115.164062 39.257812 114.234375 38.652344 113.144531 38.328125 C 111.996094 37.984375 110.800781 37.867188 109.617188 37.648438 C 108.359375 37.417969 107.117188 37.113281 105.878906 36.78125 C 104.925781 36.523438 103.699219 36.355469 102.871094 35.75 C 102.890625 35.746094 102.910156 35.738281 102.921875 35.742188 C 103.320312 35.695312 103.714844 35.664062 104.109375 35.632812 C 104.941406 35.566406 105.78125 35.519531 106.617188 35.480469 C 107.449219 35.441406 108.28125 35.40625 109.113281 35.378906 C 109.398438 35.371094 109.6875 35.363281 109.972656 35.351562 C 110 35.351562 110.078125 35.351562 110.132812 35.347656 C 110.140625 35.347656 110.144531 35.347656 110.15625 35.34375 C 110.179688 35.34375 110.1875 35.34375 110.15625 35.34375 C 110.832031 35.332031 111.203125 34.574219 110.644531 34.101562 C 109.941406 33.503906 109.203125 32.855469 108.800781 32.003906 C 108.339844 31.011719 108.59375 29.972656 108.96875 28.996094 C 109.039062 28.8125 109.296875 27.882812 109.503906 27.835938 C 109.863281 27.757812 110.003906 28.582031 110.023438 28.765625 C 110.113281 29.75 110.074219 30.59375 110.757812 31.394531 C 111.492188 32.257812 112.34375 33.039062 113.132812 33.847656 C 113.957031 34.691406 114.777344 35.535156 115.601562 36.382812 C 117.273438 38.101562 118.941406 39.8125 120.617188 41.53125 C 120.636719 41.550781 120.78125 41.753906 120.828125 41.773438 C 120.828125 41.773438 120.828125 41.773438 120.832031 41.773438 C 120.660156 41.867188 120.484375 41.933594 120.289062 41.96875 Z M 120.882812 41.800781 C 120.949219 41.835938 120.898438 41.832031 120.882812 41.800781 Z M 120.882812 41.800781 " fill-opacity="1" fill-rule="nonzero"/></g></g></g><g clip-path="url(#90e8d42d25)"><g clip-path="url(#73cf5f65bf)"><g transform="matrix(1, 0, 0, 1, 23, 27)"><g clip-path="url(#c857b1966d)"><g clip-path="url(#24b4127d5f)"><g clip-path="url(#8959c2cac8)"><path fill="#412e8f" d="M 0.667969 0.757812 L 94.269531 0.757812 L 94.269531 94.359375 L 0.667969 94.359375 Z M 0.667969 0.757812 " fill-opacity="1" fill-rule="nonzero"/></g></g></g></g></g></g><g clip-path="url(#8fa43dfadd)"><g clip-path="url(#7e814a6d23)"><g transform="matrix(1, 0, 0, 1, 221, 68)"><g clip-path="url(#6654ea17f6)"><g clip-path="url(#a105a4be66)"><g clip-path="url(#c59b31e643)"><path fill="#412e8f" d="M 0.0351562 0.140625 L 16.335938 0.140625 L 16.335938 10.34375 L 0.0351562 10.34375 Z M 0.0351562 0.140625 " fill-opacity="1" fill-rule="nonzero"/></g></g></g></g></g></g><g clip-path="url(#e0d8dcd211)"><g clip-path="url(#151bdf1602)"><g clip-path="url(#9c19dc2f63)"><g transform="matrix(1, 0, 0, 1, 240, 70)"><g clip-path="url(#bb887a7716)"><g clip-path="url(#15cf48a94f)"><g clip-path="url(#ee0a2e8d11)"><g clip-path="url(#159dea74e3)"><path fill="#412e8f" d="M 4.796875 2.730469 L 3.300781 4.554688 L 0.03125 1.871094 L 1.527344 0.046875 Z M 4.796875 2.730469 " fill-opacity="1" fill-rule="nonzero"/></g></g></g></g></g></g></g></g><g clip-path="url(#cdf09044ef)"><path fill="#ffffff" d="M 119.808594 74.863281 C 119.808594 76.40625 119.734375 77.949219 119.582031 79.488281 C 119.429688 81.023438 119.203125 82.550781 118.902344 84.066406 C 118.601562 85.582031 118.226562 87.082031 117.777344 88.558594 C 117.328125 90.039062 116.808594 91.492188 116.21875 92.921875 C 115.625 94.347656 114.964844 95.746094 114.238281 97.105469 C 113.507812 98.46875 112.714844 99.792969 111.855469 101.078125 C 110.996094 102.363281 110.078125 103.605469 109.097656 104.800781 C 108.117188 105.992188 107.082031 107.136719 105.988281 108.230469 C 104.894531 109.324219 103.75 110.359375 102.554688 111.339844 C 101.363281 112.320312 100.121094 113.242188 98.835938 114.097656 C 97.550781 114.957031 96.226562 115.75 94.863281 116.480469 C 93.5 117.210938 92.105469 117.867188 90.675781 118.460938 C 89.25 119.050781 87.796875 119.570312 86.316406 120.019531 C 84.839844 120.46875 83.339844 120.84375 81.824219 121.144531 C 80.308594 121.449219 78.78125 121.675781 77.242188 121.824219 C 75.707031 121.976562 74.164062 122.054688 72.617188 122.054688 C 71.074219 122.054688 69.53125 121.976562 67.992188 121.824219 C 66.453125 121.675781 64.925781 121.449219 63.410156 121.144531 C 61.894531 120.84375 60.398438 120.46875 58.917969 120.019531 C 57.441406 119.570312 55.988281 119.050781 54.558594 118.460938 C 53.132812 117.867188 51.734375 117.210938 50.371094 116.480469 C 49.007812 115.75 47.683594 114.957031 46.398438 114.097656 C 45.113281 113.242188 43.875 112.320312 42.679688 111.339844 C 41.484375 110.359375 40.34375 109.324219 39.25 108.230469 C 38.15625 107.136719 37.121094 105.992188 36.140625 104.800781 C 35.160156 103.605469 34.238281 102.363281 33.378906 101.078125 C 32.519531 99.792969 31.726562 98.46875 31 97.105469 C 30.269531 95.746094 29.609375 94.347656 29.019531 92.921875 C 28.425781 91.492188 27.90625 90.039062 27.457031 88.558594 C 27.011719 87.082031 26.636719 85.582031 26.332031 84.066406 C 26.03125 82.550781 25.804688 81.023438 25.652344 79.488281 C 25.503906 77.949219 25.425781 76.40625 25.425781 74.863281 C 25.425781 73.316406 25.503906 71.773438 25.652344 70.234375 C 25.804688 68.699219 26.03125 67.171875 26.332031 65.65625 C 26.636719 64.140625 27.011719 62.640625 27.457031 61.164062 C 27.90625 59.683594 28.425781 58.230469 29.019531 56.800781 C 29.609375 55.375 30.269531 53.980469 31 52.617188 C 31.726562 51.253906 32.519531 49.929688 33.378906 48.644531 C 34.238281 47.359375 35.160156 46.117188 36.140625 44.921875 C 37.121094 43.730469 38.15625 42.585938 39.25 41.492188 C 40.34375 40.398438 41.484375 39.363281 42.679688 38.382812 C 43.875 37.402344 45.113281 36.480469 46.398438 35.625 C 47.683594 34.765625 49.007812 33.972656 50.371094 33.242188 C 51.734375 32.515625 53.132812 31.855469 54.558594 31.261719 C 55.988281 30.671875 57.441406 30.152344 58.917969 29.703125 C 60.398438 29.253906 61.894531 28.878906 63.410156 28.578125 C 64.925781 28.273438 66.453125 28.046875 67.992188 27.898438 C 69.53125 27.746094 71.074219 27.671875 72.617188 27.671875 C 74.164062 27.671875 75.707031 27.746094 77.242188 27.898438 C 78.78125 28.046875 80.308594 28.273438 81.824219 28.578125 C 83.339844 28.878906 84.839844 29.253906 86.316406 29.703125 C 87.796875 30.152344 89.25 30.671875 90.675781 31.261719 C 92.105469 31.855469 93.5 32.515625 94.863281 33.242188 C 96.226562 33.972656 97.550781 34.765625 98.835938 35.625 C 100.121094 36.480469 101.363281 37.402344 102.554688 38.382812 C 103.75 39.363281 104.894531 40.398438 105.988281 41.492188 C 107.082031 42.585938 108.117188 43.730469 109.097656 44.921875 C 110.078125 46.117188 110.996094 47.359375 111.855469 48.644531 C 112.714844 49.929688 113.507812 51.253906 114.238281 52.617188 C 114.964844 53.980469 115.625 55.375 116.21875 56.800781 C 116.808594 58.230469 117.328125 59.683594 117.777344 61.164062 C 118.226562 62.640625 118.601562 64.140625 118.902344 65.65625 C 119.203125 67.171875 119.429688 68.699219 119.582031 70.234375 C 119.734375 71.773438 119.808594 73.316406 119.808594 74.863281 Z M 119.808594 74.863281 " fill-opacity="1" fill-rule="nonzero"/></g><path fill="#412e8f" d="M 104.421875 89.929688 C 101.753906 88.910156 102.226562 89.28125 100.585938 85.785156 C 98.941406 82.292969 97.945312 81.167969 94.246094 80.761719 C 90.546875 80.355469 90.6875 80.640625 89.660156 78.792969 C 88.632812 76.941406 84.464844 79.292969 81.792969 80.324219 C 79.117188 81.351562 79.777344 83.589844 78.953125 83.382812 C 78.128906 83.175781 76.054688 82.644531 73.992188 81.003906 C 71.9375 79.359375 75.519531 78.074219 76.550781 77.046875 C 77.582031 76.015625 74.609375 76.578125 73.582031 75.957031 C 72.550781 75.34375 70.707031 77.191406 69.0625 75.542969 C 67.417969 73.898438 68.445312 71.433594 68.242188 69.375 C 68.035156 67.320312 70.910156 66.910156 72.761719 66.496094 C 74.609375 66.089844 76.046875 66.5 76.046875 68.964844 C 76.046875 71.433594 78.308594 72.253906 77.695312 69.375 C 77.078125 66.492188 78.308594 65.675781 79.136719 64.234375 C 79.957031 62.796875 81.394531 60.738281 83.246094 57.65625 C 85.09375 54.570312 86.328125 56.007812 88.589844 56.230469 C 90.851562 56.453125 91.46875 56.011719 93.113281 56.21875 C 94.75 56.425781 93.113281 54.164062 93.730469 51.902344 C 94.34375 49.644531 96.605469 50.050781 98.871094 50.671875 C 101.132812 51.285156 96.605469 47.789062 95.785156 45.941406 C 94.960938 44.089844 92.699219 45.941406 91.265625 42.859375 C 89.816406 39.773438 87.796875 37.78125 85.945312 37.503906 C 84.09375 37.226562 86.535156 41.421875 85.09375 43.679688 C 83.652344 45.941406 81.4375 45.585938 79.171875 45.585938 C 76.914062 45.585938 74.816406 43.679688 76.460938 40.800781 C 78.101562 37.925781 81.242188 38.222656 82.886719 35.753906 C 84.53125 33.289062 77.039062 33.515625 74.363281 32.695312 C 71.691406 31.871094 68.480469 31.878906 65.808594 33.9375 C 63.136719 35.988281 57.417969 36.632812 55.15625 37.453125 C 52.894531 38.273438 52.488281 36.089844 52.078125 34.441406 C 51.894531 33.710938 51.0625 33.480469 49.886719 33.507812 C 44.066406 36.714844 39.027344 41.140625 35.03125 46.40625 C 35.65625 48.523438 38.664062 45.910156 39.253906 45.320312 C 39.871094 44.707031 42.953125 45.527344 43.363281 47.789062 C 43.773438 50.050781 43.570312 52.519531 42.75 54.578125 C 41.925781 56.628906 44.804688 59.507812 46.449219 62.386719 C 48.09375 65.269531 49.941406 65.265625 50.765625 65.265625 C 51.585938 65.265625 56.316406 67.117188 56.109375 69.375 C 55.90625 71.640625 60.425781 73.691406 62.277344 75.132812 C 64.128906 76.574219 65.296875 77.996094 67.699219 78.410156 C 70.105469 78.824219 72.914062 82.753906 74.148438 83.167969 C 75.09375 83.480469 76.695312 84.996094 77.664062 85.464844 C 76.390625 87.074219 73.929688 90.378906 73.929688 91.902344 C 73.929688 93.964844 76.617188 97.203125 77.644531 98.023438 C 78.667969 98.839844 81.621094 99.464844 82.230469 101.515625 C 82.851562 103.570312 81.800781 110.492188 79.957031 112.339844 C 78.101562 114.1875 77.425781 118.558594 77.425781 118.558594 C 77.425781 118.558594 78.078125 119.976562 80.265625 118.558594 C 82.683594 116.992188 86.730469 112.535156 88.347656 111.566406 C 91.433594 109.710938 94.429688 107.460938 97.308594 104.792969 C 100.1875 102.121094 99.140625 100.25 100.585938 97.585938 C 102.023438 94.914062 103.886719 95.03125 106.351562 92.777344 C 108.820312 90.511719 107.09375 90.960938 104.421875 89.929688 Z M 104.421875 89.929688 " fill-opacity="1" fill-rule="nonzero"/><g fill="#ffffff" fill-opacity="1"><g transform="translate(130.728805, 84.55859)"><g><path d="M 1.96875 0 L 1.96875 -20.515625 L 6.546875 -20.515625 L 6.546875 0 Z M 5.46875 0 L 5.46875 -3.953125 L 16.71875 -3.953125 L 16.71875 0 Z M 5.46875 -8.578125 L 5.46875 -12.375 L 15.6875 -12.375 L 15.6875 -8.578125 Z M 5.46875 -16.59375 L 5.46875 -20.515625 L 16.5625 -20.515625 L 16.5625 -16.59375 Z M 5.46875 -16.59375 "/></g></g></g><g fill="#ffffff" fill-opacity="1"><g transform="translate(147.817538, 84.55859)"><g><path d="M 1.96875 0 L 1.96875 -20.515625 L 5.171875 -20.515625 L 6.546875 -16.421875 L 6.546875 0 Z M 16.125 0 L 4.046875 -15.484375 L 5.171875 -20.515625 L 17.265625 -5.03125 Z M 16.125 0 L 14.90625 -4.09375 L 14.90625 -20.515625 L 19.46875 -20.515625 L 19.46875 0 Z M 16.125 0 "/></g></g></g><g fill="#ffffff" fill-opacity="1"><g transform="translate(168.4808, 84.55859)"><g><path d="M 11.65625 0.3125 C 10.164062 0.3125 8.765625 0.0390625 7.453125 -0.5 C 6.148438 -1.039062 5.015625 -1.789062 4.046875 -2.75 C 3.078125 -3.707031 2.316406 -4.828125 1.765625 -6.109375 C 1.210938 -7.398438 0.9375 -8.789062 0.9375 -10.28125 C 0.9375 -11.78125 1.210938 -13.164062 1.765625 -14.4375 C 2.328125 -15.71875 3.109375 -16.835938 4.109375 -17.796875 C 5.109375 -18.753906 6.273438 -19.5 7.609375 -20.03125 C 8.953125 -20.570312 10.390625 -20.84375 11.921875 -20.84375 C 13.679688 -20.84375 15.28125 -20.519531 16.71875 -19.875 C 18.164062 -19.238281 19.363281 -18.359375 20.3125 -17.234375 L 17.203125 -14.125 C 16.546875 -14.976562 15.769531 -15.617188 14.875 -16.046875 C 13.988281 -16.472656 12.984375 -16.6875 11.859375 -16.6875 C 10.660156 -16.6875 9.582031 -16.414062 8.625 -15.875 C 7.675781 -15.34375 6.9375 -14.597656 6.40625 -13.640625 C 5.875 -12.679688 5.609375 -11.5625 5.609375 -10.28125 C 5.609375 -9.007812 5.867188 -7.890625 6.390625 -6.921875 C 6.910156 -5.953125 7.625 -5.195312 8.53125 -4.65625 C 9.445312 -4.113281 10.5 -3.84375 11.6875 -3.84375 C 12.882812 -3.84375 13.90625 -4.066406 14.75 -4.515625 C 15.59375 -4.972656 16.238281 -5.628906 16.6875 -6.484375 C 17.144531 -7.347656 17.375 -8.40625 17.375 -9.65625 L 20.40625 -7.609375 L 11.25 -7.765625 L 11.25 -11.625 L 22.03125 -11.625 L 22.03125 -10.953125 C 22.03125 -8.492188 21.585938 -6.425781 20.703125 -4.75 C 19.828125 -3.070312 18.609375 -1.804688 17.046875 -0.953125 C 15.484375 -0.109375 13.6875 0.3125 11.65625 0.3125 Z M 11.65625 0.3125 "/></g></g></g><g fill="#ffffff" fill-opacity="1"><g transform="translate(190.510538, 84.55859)"><g><path d="M 1.96875 0 L 1.96875 -20.515625 L 6.546875 -20.515625 L 6.546875 0 Z M 5.5 0 L 5.5 -4.015625 L 15.640625 -4.015625 L 15.640625 0 Z M 5.5 0 "/></g></g></g><g fill="#ffffff" fill-opacity="1"><g transform="translate(206.029533, 84.55859)"><g><path d="M 1.96875 0 L 1.96875 -20.515625 L 6.546875 -20.515625 L 6.546875 0 Z M 1.96875 0 "/></g></g></g><g fill="#ffffff" fill-opacity="1"><g transform="translate(213.759791, 84.55859)"><g><path d="M 8.140625 0.3125 C 6.453125 0.3125 5 0.0351562 3.78125 -0.515625 C 2.570312 -1.066406 1.46875 -1.898438 0.46875 -3.015625 L 3.421875 -5.953125 C 4.085938 -5.203125 4.820312 -4.617188 5.625 -4.203125 C 6.425781 -3.785156 7.359375 -3.578125 8.421875 -3.578125 C 9.390625 -3.578125 10.140625 -3.75 10.671875 -4.09375 C 11.210938 -4.445312 11.484375 -4.929688 11.484375 -5.546875 C 11.484375 -6.109375 11.304688 -6.5625 10.953125 -6.90625 C 10.609375 -7.257812 10.148438 -7.5625 9.578125 -7.8125 C 9.003906 -8.070312 8.375 -8.316406 7.6875 -8.546875 C 7 -8.773438 6.316406 -9.039062 5.640625 -9.34375 C 4.960938 -9.644531 4.335938 -10.019531 3.765625 -10.46875 C 3.191406 -10.925781 2.726562 -11.5 2.375 -12.1875 C 2.03125 -12.875 1.859375 -13.742188 1.859375 -14.796875 C 1.859375 -16.054688 2.160156 -17.140625 2.765625 -18.046875 C 3.378906 -18.953125 4.226562 -19.644531 5.3125 -20.125 C 6.40625 -20.601562 7.65625 -20.84375 9.0625 -20.84375 C 10.5 -20.84375 11.8125 -20.585938 13 -20.078125 C 14.195312 -19.578125 15.179688 -18.890625 15.953125 -18.015625 L 12.984375 -15.078125 C 12.367188 -15.722656 11.742188 -16.195312 11.109375 -16.5 C 10.484375 -16.8125 9.773438 -16.96875 8.984375 -16.96875 C 8.179688 -16.96875 7.546875 -16.816406 7.078125 -16.515625 C 6.617188 -16.222656 6.390625 -15.796875 6.390625 -15.234375 C 6.390625 -14.703125 6.5625 -14.273438 6.90625 -13.953125 C 7.257812 -13.640625 7.722656 -13.363281 8.296875 -13.125 C 8.867188 -12.894531 9.5 -12.664062 10.1875 -12.4375 C 10.875 -12.207031 11.554688 -11.9375 12.234375 -11.625 C 12.910156 -11.3125 13.535156 -10.914062 14.109375 -10.4375 C 14.679688 -9.96875 15.140625 -9.367188 15.484375 -8.640625 C 15.835938 -7.921875 16.015625 -7.023438 16.015625 -5.953125 C 16.015625 -3.992188 15.316406 -2.457031 13.921875 -1.34375 C 12.523438 -0.238281 10.597656 0.3125 8.140625 0.3125 Z M 8.140625 0.3125 "/></g></g></g><g fill="#ffffff" fill-opacity="1"><g transform="translate(229.918541, 84.55859)"><g><path d="M 1.96875 0 L 1.96875 -20.515625 L 6.546875 -20.515625 L 6.546875 0 Z M 14.671875 0 L 14.671875 -20.515625 L 19.265625 -20.515625 L 19.265625 0 Z M 4.703125 -8.578125 L 4.703125 -12.53125 L 16.1875 -12.53125 L 16.1875 -8.578125 Z M 4.703125 -8.578125 "/></g></g></g><g fill="#ffffff" fill-opacity="1"><g transform="translate(250.349286, 84.55859)"><g/></g></g><g fill="#ffffff" fill-opacity="1"><g transform="translate(255.086269, 84.55859)"><g><path d="M 1.96875 0 L 1.96875 -20.515625 L 6.546875 -20.515625 L 6.546875 0 Z M 5.46875 -8.046875 L 5.46875 -11.96875 L 15.71875 -11.96875 L 15.71875 -8.046875 Z M 5.46875 -16.59375 L 5.46875 -20.515625 L 16.1875 -20.515625 L 16.1875 -16.59375 Z M 5.46875 -16.59375 "/></g></g></g><g fill="#ffffff" fill-opacity="1"><g transform="translate(271.44828, 84.55859)"><g><path d="M 11.765625 0.34375 C 10.222656 0.34375 8.796875 0.0703125 7.484375 -0.46875 C 6.171875 -1.007812 5.019531 -1.765625 4.03125 -2.734375 C 3.050781 -3.703125 2.289062 -4.828125 1.75 -6.109375 C 1.207031 -7.398438 0.9375 -8.789062 0.9375 -10.28125 C 0.9375 -11.800781 1.207031 -13.195312 1.75 -14.46875 C 2.289062 -15.75 3.046875 -16.867188 4.015625 -17.828125 C 4.984375 -18.785156 6.117188 -19.53125 7.421875 -20.0625 C 8.734375 -20.59375 10.164062 -20.859375 11.71875 -20.859375 C 13.25 -20.859375 14.664062 -20.59375 15.96875 -20.0625 C 17.28125 -19.53125 18.421875 -18.785156 19.390625 -17.828125 C 20.367188 -16.867188 21.128906 -15.742188 21.671875 -14.453125 C 22.222656 -13.171875 22.5 -11.773438 22.5 -10.265625 C 22.5 -8.765625 22.222656 -7.367188 21.671875 -6.078125 C 21.128906 -4.796875 20.375 -3.675781 19.40625 -2.71875 C 18.4375 -1.757812 17.296875 -1.007812 15.984375 -0.46875 C 14.679688 0.0703125 13.273438 0.34375 11.765625 0.34375 Z M 11.71875 -3.8125 C 12.9375 -3.8125 14.003906 -4.082031 14.921875 -4.625 C 15.835938 -5.164062 16.546875 -5.925781 17.046875 -6.90625 C 17.554688 -7.882812 17.8125 -9.007812 17.8125 -10.28125 C 17.8125 -11.25 17.664062 -12.125 17.375 -12.90625 C 17.082031 -13.695312 16.664062 -14.378906 16.125 -14.953125 C 15.582031 -15.523438 14.9375 -15.960938 14.1875 -16.265625 C 13.445312 -16.566406 12.625 -16.71875 11.71875 -16.71875 C 10.488281 -16.71875 9.414062 -16.445312 8.5 -15.90625 C 7.582031 -15.375 6.867188 -14.628906 6.359375 -13.671875 C 5.859375 -12.710938 5.609375 -11.582031 5.609375 -10.28125 C 5.609375 -9.3125 5.753906 -8.429688 6.046875 -7.640625 C 6.335938 -6.847656 6.75 -6.164062 7.28125 -5.59375 C 7.8125 -5.019531 8.453125 -4.578125 9.203125 -4.265625 C 9.960938 -3.960938 10.800781 -3.8125 11.71875 -3.8125 Z M 11.71875 -3.8125 "/></g></g></g><g fill="#ffffff" fill-opacity="1"><g transform="translate(294.087788, 84.55859)"><g><path d="M 5.46875 -8.453125 L 5.46875 -11.828125 L 9.796875 -11.828125 C 10.703125 -11.828125 11.398438 -12.054688 11.890625 -12.515625 C 12.390625 -12.984375 12.640625 -13.617188 12.640625 -14.421875 C 12.640625 -15.148438 12.394531 -15.753906 11.90625 -16.234375 C 11.425781 -16.722656 10.734375 -16.96875 9.828125 -16.96875 L 5.46875 -16.96875 L 5.46875 -20.515625 L 10.34375 -20.515625 C 11.695312 -20.515625 12.890625 -20.257812 13.921875 -19.75 C 14.953125 -19.238281 15.753906 -18.523438 16.328125 -17.609375 C 16.910156 -16.703125 17.203125 -15.65625 17.203125 -14.46875 C 17.203125 -13.269531 16.910156 -12.21875 16.328125 -11.3125 C 15.753906 -10.414062 14.941406 -9.710938 13.890625 -9.203125 C 12.847656 -8.703125 11.617188 -8.453125 10.203125 -8.453125 Z M 1.96875 0 L 1.96875 -20.515625 L 6.546875 -20.515625 L 6.546875 0 Z M 13.140625 0 L 6.75 -8.828125 L 10.921875 -9.96875 L 18.546875 0 Z M 13.140625 0 "/></g></g></g><g fill="#ffffff" fill-opacity="1"><g transform="translate(312.252026, 84.55859)"><g/></g></g><g fill="#ffffff" fill-opacity="1"><g transform="translate(316.989038, 84.55859)"><g><path d="M 0.4375 0 L 8.578125 -20.515625 L 12.703125 -20.515625 L 20.75 0 L 15.921875 0 L 9.765625 -17.03125 L 11.421875 -17.03125 L 5.171875 0 Z M 5.0625 -3.71875 L 5.0625 -7.4375 L 16.25 -7.4375 L 16.25 -3.71875 Z M 5.0625 -3.71875 "/></g></g></g><g fill="#ffffff" fill-opacity="1"><g transform="translate(337.39053, 84.55859)"><g><path d="M 5.46875 0 L 5.46875 -3.546875 L 10.28125 -3.546875 C 11.175781 -3.546875 11.875 -3.804688 12.375 -4.328125 C 12.882812 -4.847656 13.140625 -5.488281 13.140625 -6.25 C 13.140625 -6.769531 13.019531 -7.234375 12.78125 -7.640625 C 12.550781 -8.046875 12.226562 -8.363281 11.8125 -8.59375 C 11.394531 -8.832031 10.882812 -8.953125 10.28125 -8.953125 L 5.46875 -8.953125 L 5.46875 -12.40625 L 9.90625 -12.40625 C 10.664062 -12.40625 11.273438 -12.59375 11.734375 -12.96875 C 12.203125 -13.351562 12.4375 -13.929688 12.4375 -14.703125 C 12.4375 -15.460938 12.203125 -16.03125 11.734375 -16.40625 C 11.273438 -16.78125 10.664062 -16.96875 9.90625 -16.96875 L 5.46875 -16.96875 L 5.46875 -20.515625 L 10.78125 -20.515625 C 12.101562 -20.515625 13.222656 -20.269531 14.140625 -19.78125 C 15.054688 -19.300781 15.753906 -18.65625 16.234375 -17.84375 C 16.722656 -17.03125 16.96875 -16.128906 16.96875 -15.140625 C 16.96875 -13.878906 16.5625 -12.8125 15.75 -11.9375 C 14.9375 -11.070312 13.734375 -10.472656 12.140625 -10.140625 L 12.265625 -11.6875 C 13.984375 -11.351562 15.3125 -10.679688 16.25 -9.671875 C 17.195312 -8.671875 17.671875 -7.429688 17.671875 -5.953125 C 17.671875 -4.828125 17.394531 -3.8125 16.84375 -2.90625 C 16.289062 -2.007812 15.492188 -1.300781 14.453125 -0.78125 C 13.421875 -0.257812 12.175781 0 10.71875 0 Z M 1.96875 0 L 1.96875 -20.515625 L 6.484375 -20.515625 L 6.484375 0 Z M 1.96875 0 "/></g></g></g><g fill="#ffffff" fill-opacity="1"><g transform="translate(355.234524, 84.55859)"><g><path d="M 5.46875 -8.453125 L 5.46875 -11.828125 L 9.796875 -11.828125 C 10.703125 -11.828125 11.398438 -12.054688 11.890625 -12.515625 C 12.390625 -12.984375 12.640625 -13.617188 12.640625 -14.421875 C 12.640625 -15.148438 12.394531 -15.753906 11.90625 -16.234375 C 11.425781 -16.722656 10.734375 -16.96875 9.828125 -16.96875 L 5.46875 -16.96875 L 5.46875 -20.515625 L 10.34375 -20.515625 C 11.695312 -20.515625 12.890625 -20.257812 13.921875 -19.75 C 14.953125 -19.238281 15.753906 -18.523438 16.328125 -17.609375 C 16.910156 -16.703125 17.203125 -15.65625 17.203125 -14.46875 C 17.203125 -13.269531 16.910156 -12.21875 16.328125 -11.3125 C 15.753906 -10.414062 14.941406 -9.710938 13.890625 -9.203125 C 12.847656 -8.703125 11.617188 -8.453125 10.203125 -8.453125 Z M 1.96875 0 L 1.96875 -20.515625 L 6.546875 -20.515625 L 6.546875 0 Z M 13.140625 0 L 6.75 -8.828125 L 10.921875 -9.96875 L 18.546875 0 Z M 13.140625 0 "/></g></g></g><g fill="#ffffff" fill-opacity="1"><g transform="translate(373.398762, 84.55859)"><g><path d="M 11.765625 0.34375 C 10.222656 0.34375 8.796875 0.0703125 7.484375 -0.46875 C 6.171875 -1.007812 5.019531 -1.765625 4.03125 -2.734375 C 3.050781 -3.703125 2.289062 -4.828125 1.75 -6.109375 C 1.207031 -7.398438 0.9375 -8.789062 0.9375 -10.28125 C 0.9375 -11.800781 1.207031 -13.195312 1.75 -14.46875 C 2.289062 -15.75 3.046875 -16.867188 4.015625 -17.828125 C 4.984375 -18.785156 6.117188 -19.53125 7.421875 -20.0625 C 8.734375 -20.59375 10.164062 -20.859375 11.71875 -20.859375 C 13.25 -20.859375 14.664062 -20.59375 15.96875 -20.0625 C 17.28125 -19.53125 18.421875 -18.785156 19.390625 -17.828125 C 20.367188 -16.867188 21.128906 -15.742188 21.671875 -14.453125 C 22.222656 -13.171875 22.5 -11.773438 22.5 -10.265625 C 22.5 -8.765625 22.222656 -7.367188 21.671875 -6.078125 C 21.128906 -4.796875 20.375 -3.675781 19.40625 -2.71875 C 18.4375 -1.757812 17.296875 -1.007812 15.984375 -0.46875 C 14.679688 0.0703125 13.273438 0.34375 11.765625 0.34375 Z M 11.71875 -3.8125 C 12.9375 -3.8125 14.003906 -4.082031 14.921875 -4.625 C 15.835938 -5.164062 16.546875 -5.925781 17.046875 -6.90625 C 17.554688 -7.882812 17.8125 -9.007812 17.8125 -10.28125 C 17.8125 -11.25 17.664062 -12.125 17.375 -12.90625 C 17.082031 -13.695312 16.664062 -14.378906 16.125 -14.953125 C 15.582031 -15.523438 14.9375 -15.960938 14.1875 -16.265625 C 13.445312 -16.566406 12.625 -16.71875 11.71875 -16.71875 C 10.488281 -16.71875 9.414062 -16.445312 8.5 -15.90625 C 7.582031 -15.375 6.867188 -14.628906 6.359375 -13.671875 C 5.859375 -12.710938 5.609375 -11.582031 5.609375 -10.28125 C 5.609375 -9.3125 5.753906 -8.429688 6.046875 -7.640625 C 6.335938 -6.847656 6.75 -6.164062 7.28125 -5.59375 C 7.8125 -5.019531 8.453125 -4.578125 9.203125 -4.265625 C 9.960938 -3.960938 10.800781 -3.8125 11.71875 -3.8125 Z M 11.71875 -3.8125 "/></g></g></g><g fill="#ffffff" fill-opacity="1"><g transform="translate(396.038302, 84.55859)"><g><path d="M 0.4375 0 L 8.578125 -20.515625 L 12.703125 -20.515625 L 20.75 0 L 15.921875 0 L 9.765625 -17.03125 L 11.421875 -17.03125 L 5.171875 0 Z M 5.0625 -3.71875 L 5.0625 -7.4375 L 16.25 -7.4375 L 16.25 -3.71875 Z M 5.0625 -3.71875 "/></g></g></g><g fill="#ffffff" fill-opacity="1"><g transform="translate(416.439757, 84.55859)"><g><path d="M 5.0625 0 L 5.0625 -4.015625 L 10.140625 -4.015625 C 11.378906 -4.015625 12.460938 -4.257812 13.390625 -4.75 C 14.328125 -5.25 15.046875 -5.972656 15.546875 -6.921875 C 16.046875 -7.867188 16.296875 -8.988281 16.296875 -10.28125 C 16.296875 -11.582031 16.039062 -12.695312 15.53125 -13.625 C 15.019531 -14.5625 14.300781 -15.28125 13.375 -15.78125 C 12.457031 -16.28125 11.378906 -16.53125 10.140625 -16.53125 L 4.90625 -16.53125 L 4.90625 -20.515625 L 10.203125 -20.515625 C 11.753906 -20.515625 13.179688 -20.265625 14.484375 -19.765625 C 15.796875 -19.273438 16.941406 -18.570312 17.921875 -17.65625 C 18.898438 -16.738281 19.65625 -15.65625 20.1875 -14.40625 C 20.71875 -13.15625 20.984375 -11.773438 20.984375 -10.265625 C 20.984375 -8.765625 20.71875 -7.382812 20.1875 -6.125 C 19.65625 -4.875 18.90625 -3.789062 17.9375 -2.875 C 16.96875 -1.96875 15.828125 -1.257812 14.515625 -0.75 C 13.210938 -0.25 11.796875 0 10.265625 0 Z M 1.96875 0 L 1.96875 -20.515625 L 6.546875 -20.515625 L 6.546875 0 Z M 1.96875 0 "/></g></g></g></svg>