<svg xmlns="http://www.w3.org/2000/svg" xmlns:xlink="http://www.w3.org/1999/xlink" width="2000" zoomAndPan="magnify" viewBox="0 0 1500 1499.999933" height="2000" preserveAspectRatio="xMidYMid meet" version="1.0"><defs><g/><clipPath id="377862dc76"><path d="M 328 414 L 1212 414 L 1212 1216 L 328 1216 Z M 328 414 " clip-rule="nonzero"/></clipPath><clipPath id="fcb0760600"><path d="M 236.449219 120.367188 L 1272.78125 233.59375 L 1159.144531 1273.65625 L 122.8125 1160.425781 Z M 236.449219 120.367188 " clip-rule="nonzero"/></clipPath><clipPath id="bf1f8255c6"><path d="M 236.449219 120.367188 L 1272.78125 233.59375 L 1159.144531 1273.65625 L 122.8125 1160.425781 Z M 236.449219 120.367188 " clip-rule="nonzero"/></clipPath><clipPath id="a7fc5628b0"><path d="M 175 175 L 1193 175 L 1193 1125 L 175 1125 Z M 175 175 " clip-rule="nonzero"/></clipPath><clipPath id="cee6d46145"><path d="M 236.449219 120.367188 L 1272.78125 233.59375 L 1159.144531 1273.65625 L 122.8125 1160.425781 Z M 236.449219 120.367188 " clip-rule="nonzero"/></clipPath><clipPath id="bfe2978d9c"><path d="M 236.449219 120.367188 L 1272.78125 233.59375 L 1159.144531 1273.65625 L 122.8125 1160.425781 Z M 236.449219 120.367188 " clip-rule="nonzero"/></clipPath><clipPath id="4f00376f8c"><path d="M 251.269531 250.503906 L 1144.25 250.503906 L 1144.25 1143.484375 L 251.269531 1143.484375 Z M 251.269531 250.503906 " clip-rule="nonzero"/></clipPath><clipPath id="dbb91a842e"><path d="M 697.757812 250.503906 C 451.167969 250.503906 251.269531 450.402344 251.269531 696.992188 C 251.269531 943.582031 451.167969 1143.484375 697.757812 1143.484375 C 944.347656 1143.484375 1144.25 943.582031 1144.25 696.992188 C 1144.25 450.402344 944.347656 250.503906 697.757812 250.503906 Z M 697.757812 250.503906 " clip-rule="nonzero"/></clipPath><clipPath id="cb7c59d468"><path d="M 0.269531 0.503906 L 893.25 0.503906 L 893.25 893.484375 L 0.269531 893.484375 Z M 0.269531 0.503906 " clip-rule="nonzero"/></clipPath><clipPath id="ccdecafa3b"><path d="M 446.757812 0.503906 C 200.167969 0.503906 0.269531 200.402344 0.269531 446.992188 C 0.269531 693.582031 200.167969 893.484375 446.757812 893.484375 C 693.347656 893.484375 893.25 693.582031 893.25 446.992188 C 893.25 200.402344 693.347656 0.503906 446.757812 0.503906 Z M 446.757812 0.503906 " clip-rule="nonzero"/></clipPath><clipPath id="09bacacc88"><rect x="0" width="894" y="0" height="894"/></clipPath><clipPath id="8627accdf7"><path d="M 268.054688 249.660156 L 1168.804688 249.660156 L 1168.804688 1150.410156 L 268.054688 1150.410156 Z M 268.054688 249.660156 " clip-rule="nonzero"/></clipPath><clipPath id="67c849e55c"><rect x="0" width="1276" y="0" height="1110"/></clipPath></defs><g clip-path="url(#377862dc76)"><g clip-path="url(#fcb0760600)"><g clip-path="url(#bf1f8255c6)"><path fill="#ffffff" d="M 1198.699219 828.824219 C 1190.828125 872.839844 1182.875 917.203125 1166.898438 959 C 1124.398438 1070.121094 1024.929688 1156.195312 910.152344 1193.058594 C 795.378906 1229.925781 667.40625 1219.757812 555.386719 1174.539062 C 508.449219 1155.605469 463.085938 1130.011719 429.832031 1092.285156 C 386.984375 1043.660156 367.945312 979.4375 352.808594 916.882812 C 326.988281 810.328125 310.414062 692.265625 363.804688 596.449219 C 380.589844 566.324219 433.355469 486.820312 481.078125 471.304688 C 682.617188 405.746094 908.957031 376.855469 1081.503906 499.441406 C 1135.878906 538.054688 1184.96875 588.871094 1203.164062 652.289062 C 1219.503906 709.515625 1209.171875 770.355469 1198.699219 828.824219 Z M 1198.699219 828.824219 " fill-opacity="1" fill-rule="nonzero"/></g></g></g><g clip-path="url(#a7fc5628b0)"><g clip-path="url(#cee6d46145)"><g clip-path="url(#bfe2978d9c)"><path fill="#412e8f" d="M 895.90625 330.953125 C 816.40625 291.949219 725.054688 277.75 637.828125 294.453125 C 554.457031 310.378906 476.097656 352.378906 415.195312 411.285156 C 353.304688 471.148438 309.589844 548.667969 293.140625 633.382812 C 276.394531 719.621094 287.519531 811.609375 323.699219 891.597656 C 340.933594 929.703125 363.9375 965.726562 392.511719 996.324219 C 421 1026.871094 454.804688 1051.824219 491.742188 1071.265625 C 569.394531 1112.152344 660.46875 1128.894531 747.78125 1124.007812 C 832.015625 1119.273438 915.484375 1091.0625 980.308594 1036.046875 C 1045.523438 980.71875 1088.105469 903.386719 1108.347656 820.902344 C 1113.542969 799.765625 1117.265625 778.289062 1119.675781 756.625 C 1128.9375 670.636719 1117.761719 580.773438 1077.527344 503.359375 C 1038.328125 427.832031 971.863281 368.238281 895.90625 330.953125 Z M 1106.515625 755.1875 C 1097.304688 838.296875 1067.363281 919.761719 1013.21875 984.289062 C 960.402344 1047.1875 886.867188 1087.667969 806.582031 1103.398438 C 723.304688 1119.691406 633.988281 1112.0625 554.011719 1083.925781 C 515.242188 1070.28125 478.339844 1051.335938 445.542969 1026.488281 C 413.117188 1001.90625 385.785156 971.753906 363.722656 937.652344 C 318.070312 867.148438 296.046875 781.910156 299.152344 698.226562 C 302.296875 613.386719 332.28125 531.925781 384.511719 465.015625 C 434.941406 400.390625 504.417969 350.722656 581.671875 323.339844 C 662.894531 294.574219 751.1875 293.703125 833.1875 319.972656 C 912.101562 345.238281 984.277344 393.960938 1034.625 460.097656 C 1084.894531 526.089844 1108.238281 609.425781 1109.503906 691.683594 C 1109.851562 712.894531 1108.777344 734.082031 1106.515625 755.1875 Z M 982.542969 472.429688 C 982.542969 472.429688 1065.71875 585.429688 1043.453125 621.835938 C 1028.921875 645.550781 1013.226562 638.863281 1007.867188 606.671875 C 1002.511719 574.4375 986.195312 570.613281 977.035156 574.007812 C 956.21875 581.722656 960.539062 626.671875 992.953125 655.023438 C 1025.402344 683.425781 1028.472656 736.183594 985.046875 767.617188 C 941.617188 799.046875 953.609375 819.3125 940.933594 833.730469 C 928.261719 848.144531 897.511719 865.117188 833.355469 901.03125 C 769.195312 936.941406 825.1875 835.199219 847.613281 792.460938 C 870.039062 749.722656 836.417969 671.480469 801.042969 629.21875 C 765.664062 586.957031 730.300781 598.230469 694.921875 555.96875 C 659.546875 513.707031 724.171875 511.714844 719.75 486.371094 C 715.285156 461.027344 695.90625 465.703125 687.871094 437.703125 C 683.203125 421.523438 706.726562 412.199219 729.621094 406.578125 C 735.6875 405.109375 734.792969 396.222656 728.570312 395.898438 C 711.40625 394.953125 691.441406 394.460938 674.671875 395.601562 C 636.609375 398.234375 637.535156 455.152344 594.933594 454.667969 C 548.03125 454.117188 517.6875 407.613281 522.597656 404.109375 C 527.554688 400.613281 661.335938 316.554688 812.480469 361.609375 C 917.929688 393.0625 982.542969 472.429688 982.542969 472.429688 Z M 651.917969 1017.433594 C 631.4375 1029.355469 597.101562 1041.761719 597.101562 1041.761719 C 597.101562 1041.761719 447.699219 972.214844 398.804688 880.628906 C 336.539062 763.921875 367.402344 675.230469 367.402344 675.230469 C 367.402344 675.230469 453.476562 638.207031 470.011719 701.402344 C 486.542969 764.597656 498.347656 728.867188 531.117188 813.675781 C 563.878906 898.53125 553.484375 955.097656 605.429688 957.84375 C 657.371094 960.589844 672.394531 1005.511719 651.917969 1017.433594 Z M 941.617188 914.011719 C 922.105469 942.285156 851.835938 986.585938 884.242188 922.792969 C 884.199219 922.785156 961.125 885.78125 941.617188 914.011719 Z M 1023.617188 815.152344 C 1068.289062 814.175781 1056.183594 884.761719 1038.566406 892.425781 C 1027.015625 897.421875 1027.351562 881.34375 1020.738281 872.808594 C 1014.125 864.273438 1003.5 887.972656 981.753906 885.507812 C 960.011719 882.996094 975.441406 865.683594 985.132812 845.214844 C 994.875 824.707031 971.207031 816.261719 1023.617188 815.152344 Z M 207.777344 969.441406 C 207.433594 968.515625 207.140625 967.550781 206.839844 966.628906 C 199.902344 945.628906 194.671875 924.019531 190.246094 902.363281 C 181.691406 860.414062 176.726562 817.703125 175.449219 774.949219 C 173.757812 718.925781 178.210938 662.726562 190.367188 607.949219 C 204.535156 544.070312 228.847656 482.851562 263.292969 427.179688 C 301.421875 365.429688 351.863281 310.039062 410.476562 267.171875 C 459.734375 231.140625 515.367188 204.59375 574.570312 189.667969 C 625.828125 176.757812 679.164062 172.863281 731.875 176.316406 C 777.179688 179.3125 822.015625 187.804688 865.597656 200.46875 C 897.132812 209.640625 928.023438 221.050781 957.863281 234.742188 C 969.953125 240.28125 982.054688 246.128906 993.527344 252.84375 C 1000.867188 257.152344 992.917969 267.777344 985.664062 263.480469 C 984.957031 263.046875 984.242188 262.660156 983.53125 262.269531 C 985.617188 263.476562 983.195312 262.101562 982.152344 261.496094 C 980.890625 260.828125 979.632812 260.15625 978.375 259.488281 C 974.808594 257.589844 971.234375 255.777344 967.65625 254.011719 C 957.085938 248.773438 946.339844 243.914062 935.480469 239.308594 C 902.8125 225.488281 868.984375 214.15625 834.527344 205.730469 C 789.480469 194.683594 743.15625 188.46875 696.746094 188.28125 C 643.722656 188.078125 590.414062 196.191406 540.265625 213.574219 C 481.03125 234.089844 427.007812 267.027344 380.207031 308.609375 C 326.371094 356.480469 281.355469 414.636719 249.359375 479.144531 C 222.03125 534.261719 204.089844 593.648438 195.222656 654.511719 C 187.660156 706.238281 186.402344 758.792969 190.65625 810.878906 C 193.738281 848.457031 199.507812 885.839844 208.285156 922.53125 C 209.707031 928.59375 211.269531 934.621094 212.878906 940.613281 C 213.539062 943.082031 214.207031 945.507812 214.917969 947.9375 C 215.238281 949.082031 215.558594 950.226562 215.917969 951.375 C 216.046875 951.832031 216.175781 952.292969 216.308594 952.707031 C 216.300781 952.75 216.300781 952.75 216.339844 952.796875 C 217.484375 956.5625 218.625 960.328125 219.910156 964.019531 C 222.714844 972.046875 210.632812 977.429688 207.777344 969.441406 Z M 216.824219 1043.046875 C 216.777344 1043.042969 216.734375 1043.039062 216.695312 1042.988281 C 216.738281 1042.992188 216.785156 1043 216.824219 1043.046875 Z M 249.191406 1038.503906 C 248.316406 1035.125 247.488281 1031.75 246.613281 1028.367188 C 246.617188 1028.324219 246.574219 1028.320312 246.578125 1028.277344 C 246.503906 1027.734375 246.34375 1027.183594 246.128906 1026.71875 C 246.054688 1026.578125 245.972656 1026.523438 245.894531 1026.425781 C 245.457031 1025.535156 244.875 1024.761719 244.019531 1024.089844 C 242.707031 1023.105469 240.636719 1022.523438 239 1022.875 C 238.546875 1022.960938 238.085938 1023.132812 237.667969 1023.308594 C 237.574219 1023.34375 237.441406 1023.328125 237.351562 1023.363281 C 230.070312 1025.808594 222.832031 1028.257812 215.554688 1030.703125 C 214.125 1031.167969 212.558594 1032.90625 212.09375 1034.320312 C 211.582031 1035.773438 211.515625 1037.183594 211.976562 1038.65625 C 212.726562 1041.132812 214.644531 1042.675781 216.941406 1043.191406 C 217.183594 1043.398438 217.433594 1043.558594 217.632812 1043.757812 C 217.671875 1043.804688 217.753906 1043.859375 217.832031 1043.957031 C 217.957031 1044.058594 218.035156 1044.15625 218.074219 1044.203125 C 218.707031 1044.894531 219.386719 1045.589844 220.019531 1046.28125 C 223.117188 1049.636719 226.261719 1052.957031 230.382812 1055.046875 C 232.695312 1056.234375 235.355469 1056.65625 237.921875 1056.316406 C 241.125 1055.867188 243.722656 1054.019531 245.84375 1051.675781 C 246.546875 1050.910156 247.167969 1050.089844 247.707031 1049.21875 C 249.007812 1047.097656 250.609375 1044.609375 250.09375 1042.019531 C 249.832031 1040.75 249.464844 1039.644531 249.191406 1038.503906 Z M 216.90625 1043.101562 C 215.75 1042.707031 216.042969 1042.472656 216.738281 1042.992188 C 216.785156 1043 216.777344 1043.042969 216.824219 1043.046875 C 216.90625 1043.101562 216.992188 1043.109375 217.121094 1043.167969 C 217.640625 1043.269531 218.171875 1043.28125 218.710938 1043.253906 C 218.171875 1043.28125 217.59375 1043.308594 217.988281 1043.351562 C 218.601562 1043.417969 218.261719 1043.691406 217.160156 1043.21875 C 217.117188 1043.210938 217.117188 1043.210938 217.070312 1043.207031 C 216.988281 1043.152344 216.945312 1043.148438 216.863281 1043.09375 C 216.867188 1043.050781 216.867188 1043.050781 216.90625 1043.101562 Z M 217.078125 1043.164062 C 217.078125 1043.164062 217.082031 1043.121094 217.078125 1043.164062 C 217.203125 1043.222656 217.332031 1043.28125 217.375 1043.285156 C 217.242188 1043.269531 217.203125 1043.222656 217.117188 1043.210938 C 217.121094 1043.167969 217.078125 1043.164062 217.078125 1043.164062 Z M 1186.601562 373.632812 C 1174.871094 361.566406 1163.136719 349.496094 1151.402344 337.472656 C 1151.773438 327.171875 1153.152344 316.980469 1154.449219 306.734375 C 1155.152344 301.128906 1155.765625 295.515625 1156.070312 289.867188 C 1156.316406 285.1875 1156.679688 280.210938 1154.207031 276.035156 C 1151.402344 271.246094 1145.660156 269.375 1140.507812 271.429688 C 1135.355469 273.488281 1132.332031 278.394531 1129.949219 283.152344 C 1126.367188 290.347656 1123.28125 297.867188 1120.15625 305.339844 C 1112.457031 297.398438 1104.710938 289.492188 1097.011719 281.550781 C 1094.257812 278.71875 1090.71875 275.757812 1089.460938 271.847656 C 1088.175781 267.753906 1088.640625 263.101562 1088.347656 258.851562 C 1087.789062 251.378906 1084.535156 244.1875 1077.863281 240.261719 C 1059.386719 229.410156 1050.917969 259.378906 1048.601562 272.042969 C 1045.808594 287.453125 1052.058594 299.71875 1061.429688 310.242188 C 1054.03125 310.5 1046.675781 310.804688 1039.269531 311.148438 C 1029.582031 311.644531 1019.890625 312.183594 1010.25 313.085938 C 1001.90625 313.859375 986.84375 315.230469 990.941406 327.707031 C 994.742188 339.222656 1010.367188 343.28125 1020.582031 346.082031 C 1034.847656 349.996094 1049.160156 353.867188 1063.707031 356.832031 C 1077.296875 359.605469 1091.691406 360.289062 1104.742188 365.175781 C 1117.320312 369.882812 1126.679688 379.691406 1137.375 387.429688 C 1147.945312 395.109375 1161.089844 401.164062 1174.476562 399.296875 C 1180.292969 398.46875 1187.304688 396.035156 1190.457031 390.746094 C 1194.003906 384.695312 1190.933594 378.277344 1186.601562 373.632812 Z M 1139.417969 294.394531 C 1140.316406 292.273438 1141.21875 290.109375 1142.242188 288.042969 C 1142.355469 287.835938 1142.617188 287.464844 1142.933594 287.011719 C 1142.394531 299.648438 1140.230469 312.148438 1138.949219 324.703125 C 1136.039062 321.679688 1133.078125 318.691406 1130.167969 315.667969 C 1133.25 308.589844 1136.335938 301.46875 1139.417969 294.394531 Z M 1173.164062 386.101562 C 1168.460938 386.921875 1163.625 386.082031 1159.183594 384.488281 C 1149.015625 380.84375 1141.023438 373.535156 1132.695312 366.898438 C 1124.28125 360.210938 1115.414062 354.449219 1105.007812 351.359375 C 1094.046875 348.074219 1082.628906 346.960938 1071.359375 344.882812 C 1059.347656 342.683594 1047.507812 339.75 1035.6875 336.59375 C 1026.59375 334.132812 1014.871094 332.542969 1006.980469 326.753906 C 1007.160156 326.730469 1007.34375 326.660156 1007.476562 326.675781 C 1011.253906 326.242188 1015.015625 325.945312 1018.773438 325.644531 C 1026.746094 325.007812 1034.742188 324.550781 1042.726562 324.179688 C 1050.667969 323.804688 1058.605469 323.472656 1066.535156 323.230469 C 1069.253906 323.125 1072.011719 323.074219 1074.730469 322.96875 C 1074.996094 322.953125 1075.753906 322.949219 1076.246094 322.914062 C 1076.332031 322.921875 1076.378906 322.929688 1076.46875 322.894531 C 1076.695312 322.875 1076.78125 322.882812 1076.46875 322.894531 C 1082.921875 322.753906 1086.460938 315.550781 1081.140625 311.019531 C 1074.441406 305.316406 1067.390625 299.132812 1063.570312 291.035156 C 1059.148438 281.539062 1061.5625 271.640625 1065.15625 262.3125 C 1065.835938 260.566406 1068.269531 251.6875 1070.273438 251.238281 C 1073.679688 250.503906 1075.039062 258.375 1075.203125 260.125 C 1076.089844 269.496094 1075.695312 277.578125 1082.226562 285.214844 C 1089.230469 293.4375 1097.339844 300.894531 1104.886719 308.597656 C 1112.75 316.648438 1120.570312 324.695312 1128.433594 332.789062 C 1144.394531 349.179688 1160.320312 365.523438 1176.285156 381.917969 C 1176.484375 382.117188 1177.875 384.042969 1178.296875 384.222656 C 1178.296875 384.222656 1178.296875 384.222656 1178.339844 384.226562 C 1176.691406 385.113281 1175.019531 385.773438 1173.164062 386.101562 Z M 1178.84375 384.503906 C 1179.472656 384.839844 1178.992188 384.785156 1178.84375 384.503906 Z M 1178.84375 384.503906 " fill-opacity="1" fill-rule="nonzero"/></g></g></g><g clip-path="url(#4f00376f8c)"><g clip-path="url(#dbb91a842e)"><g transform="matrix(1, 0, 0, 1, 251, 250)"><g clip-path="url(#09bacacc88)"><g clip-path="url(#cb7c59d468)"><g clip-path="url(#ccdecafa3b)"><path fill="#ffffff" d="M 0.269531 0.503906 L 893.25 0.503906 L 893.25 893.484375 L 0.269531 893.484375 Z M 0.269531 0.503906 " fill-opacity="1" fill-rule="nonzero"/></g></g></g></g></g></g><g clip-path="url(#8627accdf7)"><path fill="#412e8f" d="M 1168.535156 699.898438 C 1168.535156 707.265625 1168.355469 714.632812 1167.992188 721.992188 C 1167.632812 729.351562 1167.089844 736.695312 1166.367188 744.03125 C 1165.644531 751.363281 1164.742188 758.675781 1163.660156 765.960938 C 1162.582031 773.25 1161.320312 780.507812 1159.882812 787.734375 C 1158.445312 794.964844 1156.832031 802.152344 1155.042969 809.296875 C 1153.25 816.445312 1151.285156 823.546875 1149.148438 830.597656 C 1147.007812 837.648438 1144.699219 844.640625 1142.214844 851.582031 C 1139.734375 858.519531 1137.082031 865.390625 1134.261719 872.199219 C 1131.441406 879.003906 1128.457031 885.738281 1125.308594 892.402344 C 1122.15625 899.0625 1118.84375 905.640625 1115.371094 912.140625 C 1111.898438 918.640625 1108.265625 925.046875 1104.480469 931.367188 C 1100.691406 937.6875 1096.75 943.910156 1092.65625 950.039062 C 1088.5625 956.164062 1084.320312 962.1875 1079.929688 968.105469 C 1075.542969 974.023438 1071.011719 979.832031 1066.335938 985.527344 C 1061.660156 991.222656 1056.847656 996.800781 1051.902344 1002.261719 C 1046.953125 1007.722656 1041.875 1013.054688 1036.664062 1018.265625 C 1031.453125 1023.476562 1026.117188 1028.554688 1020.65625 1033.503906 C 1015.199219 1038.453125 1009.621094 1043.265625 1003.925781 1047.9375 C 998.226562 1052.613281 992.421875 1057.144531 986.503906 1061.535156 C 980.585938 1065.925781 974.5625 1070.167969 968.433594 1074.261719 C 962.308594 1078.355469 956.085938 1082.292969 949.765625 1086.082031 C 943.445312 1089.871094 937.035156 1093.5 930.535156 1096.976562 C 924.039062 1100.449219 917.457031 1103.761719 910.796875 1106.910156 C 904.136719 1110.0625 897.402344 1113.046875 890.59375 1115.867188 C 883.785156 1118.6875 876.914062 1121.335938 869.976562 1123.820312 C 863.039062 1126.300781 856.042969 1128.613281 848.992188 1130.75 C 841.941406 1132.890625 834.84375 1134.855469 827.695312 1136.644531 C 820.546875 1138.4375 813.359375 1140.050781 806.132812 1141.488281 C 798.90625 1142.925781 791.648438 1144.183594 784.359375 1145.265625 C 777.070312 1146.347656 769.757812 1147.25 762.425781 1147.972656 C 755.09375 1148.691406 747.746094 1149.234375 740.386719 1149.597656 C 733.027344 1149.957031 725.664062 1150.140625 718.296875 1150.140625 C 710.925781 1150.140625 703.5625 1149.957031 696.203125 1149.597656 C 688.84375 1149.234375 681.496094 1148.691406 674.164062 1147.972656 C 666.832031 1147.25 659.519531 1146.347656 652.230469 1145.265625 C 644.941406 1144.183594 637.683594 1142.925781 630.457031 1141.488281 C 623.230469 1140.050781 616.042969 1138.4375 608.894531 1136.644531 C 601.746094 1134.855469 594.648438 1132.890625 587.597656 1130.75 C 580.546875 1128.613281 573.550781 1126.300781 566.613281 1123.820312 C 559.675781 1121.335938 552.804688 1118.6875 545.996094 1115.867188 C 539.1875 1113.046875 532.453125 1110.0625 525.792969 1106.910156 C 519.132812 1103.761719 512.550781 1100.449219 506.054688 1096.976562 C 499.554688 1093.5 493.144531 1089.871094 486.824219 1086.082031 C 480.503906 1082.292969 474.28125 1078.355469 468.15625 1074.261719 C 462.027344 1070.167969 456.003906 1065.925781 450.085938 1061.535156 C 444.167969 1057.144531 438.363281 1052.613281 432.664062 1047.9375 C 426.96875 1043.265625 421.390625 1038.453125 415.933594 1033.503906 C 410.472656 1028.554688 405.136719 1023.476562 399.925781 1018.265625 C 394.71875 1013.054688 389.636719 1007.722656 384.6875 1002.261719 C 379.742188 996.800781 374.929688 991.222656 370.253906 985.527344 C 365.582031 979.832031 361.046875 974.023438 356.660156 968.105469 C 352.269531 962.1875 348.027344 956.164062 343.933594 950.039062 C 339.839844 943.910156 335.898438 937.6875 332.109375 931.367188 C 328.324219 925.046875 324.691406 918.640625 321.21875 912.140625 C 317.746094 905.640625 314.433594 899.0625 311.28125 892.402344 C 308.132812 885.738281 305.148438 879.003906 302.328125 872.199219 C 299.507812 865.390625 296.855469 858.519531 294.375 851.582031 C 291.890625 844.640625 289.582031 837.648438 287.441406 830.597656 C 285.304688 823.546875 283.339844 816.445312 281.546875 809.296875 C 279.757812 802.152344 278.144531 794.964844 276.707031 787.734375 C 275.269531 780.507812 274.007812 773.25 272.929688 765.960938 C 271.847656 758.675781 270.945312 751.363281 270.222656 744.03125 C 269.5 736.695312 268.957031 729.351562 268.597656 721.992188 C 268.234375 714.632812 268.054688 707.265625 268.054688 699.898438 C 268.054688 692.53125 268.234375 685.167969 268.597656 677.808594 C 268.957031 670.445312 269.5 663.101562 270.222656 655.769531 C 270.945312 648.433594 271.847656 641.125 272.929688 633.835938 C 274.007812 626.546875 275.269531 619.289062 276.707031 612.0625 C 278.144531 604.835938 279.757812 597.648438 281.546875 590.5 C 283.339844 583.351562 285.304688 576.253906 287.441406 569.199219 C 289.582031 562.148438 291.890625 555.15625 294.375 548.21875 C 296.855469 541.28125 299.507812 534.40625 302.328125 527.597656 C 305.148438 520.792969 308.132812 514.058594 311.28125 507.394531 C 314.433594 500.734375 317.746094 494.15625 321.21875 487.65625 C 324.691406 481.160156 328.324219 474.75 332.109375 468.429688 C 335.898438 462.109375 339.839844 455.886719 343.933594 449.757812 C 348.027344 443.632812 352.269531 437.609375 356.660156 431.691406 C 361.046875 425.773438 365.582031 419.964844 370.253906 414.269531 C 374.929688 408.574219 379.742188 402.996094 384.6875 397.535156 C 389.636719 392.078125 394.71875 386.742188 399.925781 381.53125 C 405.136719 376.320312 410.472656 371.242188 415.933594 366.292969 C 421.390625 361.34375 426.96875 356.53125 432.664062 351.859375 C 438.363281 347.183594 444.167969 342.652344 450.085938 338.261719 C 456.003906 333.875 462.027344 329.632812 468.15625 325.539062 C 474.28125 321.445312 480.503906 317.503906 486.824219 313.714844 C 493.144531 309.925781 499.554688 306.296875 506.054688 302.824219 C 512.550781 299.347656 519.132812 296.035156 525.792969 292.886719 C 532.453125 289.734375 539.1875 286.75 545.996094 283.929688 C 552.804688 281.113281 559.675781 278.460938 566.613281 275.976562 C 573.550781 273.496094 580.546875 271.183594 587.597656 269.046875 C 594.648438 266.90625 601.746094 264.941406 608.894531 263.152344 C 616.042969 261.363281 623.230469 259.746094 630.457031 258.308594 C 637.683594 256.871094 644.941406 255.613281 652.230469 254.53125 C 659.519531 253.449219 666.832031 252.550781 674.164062 251.828125 C 681.496094 251.105469 688.84375 250.5625 696.203125 250.199219 C 703.5625 249.839844 710.925781 249.660156 718.296875 249.660156 C 725.664062 249.660156 733.027344 249.839844 740.386719 250.199219 C 747.746094 250.5625 755.09375 251.105469 762.425781 251.828125 C 769.757812 252.550781 777.070312 253.449219 784.359375 254.53125 C 791.648438 255.613281 798.90625 256.871094 806.132812 258.308594 C 813.359375 259.746094 820.546875 261.363281 827.695312 263.152344 C 834.84375 264.941406 841.941406 266.90625 848.992188 269.046875 C 856.042969 271.183594 863.039062 273.496094 869.976562 275.976562 C 876.914062 278.460938 883.785156 281.113281 890.59375 283.929688 C 897.402344 286.75 904.136719 289.734375 910.796875 292.886719 C 917.457031 296.035156 924.039062 299.347656 930.535156 302.824219 C 937.035156 306.296875 943.445312 309.925781 949.765625 313.714844 C 956.085938 317.503906 962.308594 321.445312 968.433594 325.539062 C 974.5625 329.632812 980.585938 333.875 986.503906 338.261719 C 992.421875 342.652344 998.226562 347.183594 1003.925781 351.859375 C 1009.621094 356.53125 1015.199219 361.34375 1020.65625 366.292969 C 1026.117188 371.242188 1031.453125 376.320312 1036.664062 381.53125 C 1041.875 386.742188 1046.953125 392.078125 1051.902344 397.535156 C 1056.847656 402.996094 1061.660156 408.574219 1066.335938 414.269531 C 1071.011719 419.964844 1075.542969 425.773438 1079.929688 431.691406 C 1084.320312 437.609375 1088.5625 443.632812 1092.65625 449.757812 C 1096.75 455.886719 1100.691406 462.109375 1104.480469 468.429688 C 1108.265625 474.75 1111.898438 481.160156 1115.371094 487.65625 C 1118.84375 494.15625 1122.15625 500.734375 1125.308594 507.394531 C 1128.457031 514.058594 1131.441406 520.792969 1134.261719 527.597656 C 1137.082031 534.40625 1139.734375 541.28125 1142.214844 548.21875 C 1144.699219 555.15625 1147.007812 562.148438 1149.148438 569.199219 C 1151.285156 576.253906 1153.25 583.351562 1155.042969 590.5 C 1156.832031 597.648438 1158.445312 604.835938 1159.882812 612.0625 C 1161.320312 619.289062 1162.582031 626.546875 1163.660156 633.835938 C 1164.742188 641.125 1165.644531 648.433594 1166.367188 655.769531 C 1167.089844 663.101562 1167.632812 670.445312 1167.992188 677.808594 C 1168.355469 685.167969 1168.535156 692.53125 1168.535156 699.898438 Z M 1168.535156 699.898438 " fill-opacity="1" fill-rule="nonzero"/></g><path fill="#ffffff" d="M 1021.707031 843.675781 C 996.269531 833.921875 1000.796875 837.472656 985.113281 804.128906 C 969.429688 770.8125 959.925781 760.082031 924.65625 756.179688 C 889.363281 752.300781 890.6875 755.054688 880.882812 737.417969 C 871.078125 719.757812 831.304688 742.195312 805.839844 752.027344 C 780.304688 761.832031 786.605469 783.191406 778.753906 781.191406 C 770.875 779.242188 751.0625 774.164062 731.402344 758.503906 C 711.792969 742.796875 745.984375 730.539062 755.816406 720.761719 C 765.644531 710.929688 737.304688 716.28125 727.476562 710.355469 C 717.644531 704.5 700.058594 722.136719 684.378906 706.402344 C 668.667969 690.71875 678.5 667.179688 676.546875 647.570312 C 674.570312 627.933594 702.011719 624.035156 719.671875 620.105469 C 737.304688 616.203125 751.011719 620.132812 751.011719 643.644531 C 751.011719 667.179688 772.597656 675.035156 766.722656 647.546875 C 760.84375 620.054688 772.597656 612.253906 780.476562 598.519531 C 788.308594 584.789062 802.039062 565.152344 819.675781 535.734375 C 837.332031 506.320312 849.113281 520.027344 870.675781 522.128906 C 892.261719 524.253906 898.140625 520.054688 913.824219 522.027344 C 929.457031 524.003906 913.824219 502.417969 919.726562 480.855469 C 925.582031 459.296875 947.167969 463.199219 968.777344 469.101562 C 990.339844 474.980469 947.167969 441.609375 939.339844 423.976562 C 931.457031 406.316406 909.898438 423.976562 896.214844 394.5625 C 882.382812 365.144531 863.097656 346.109375 845.4375 343.484375 C 827.777344 340.832031 851.066406 380.855469 837.332031 402.414062 C 823.550781 423.976562 802.441406 420.601562 780.804688 420.601562 C 759.265625 420.601562 739.257812 402.414062 754.964844 374.949219 C 770.621094 347.511719 800.5625 350.335938 816.246094 326.800781 C 831.957031 303.289062 760.46875 305.4375 734.953125 297.609375 C 709.441406 289.753906 678.824219 289.828125 653.335938 309.441406 C 627.820312 329.027344 573.269531 335.152344 551.679688 342.984375 C 530.121094 350.8125 526.242188 329.976562 522.339844 314.269531 C 520.589844 307.289062 512.636719 305.089844 501.429688 305.339844 C 445.898438 335.953125 397.800781 378.175781 359.703125 428.429688 C 365.632812 448.613281 394.347656 423.703125 399.976562 418.074219 C 405.851562 412.195312 435.269531 420.050781 439.171875 441.609375 C 443.097656 463.171875 441.148438 486.761719 433.316406 506.371094 C 425.464844 525.957031 452.929688 553.421875 468.613281 580.886719 C 484.320312 608.375 501.953125 608.351562 509.808594 608.351562 C 517.636719 608.351562 562.761719 626.007812 560.785156 647.570312 C 558.835938 669.15625 601.984375 688.742188 619.640625 702.476562 C 637.300781 716.257812 648.457031 729.789062 671.371094 733.742188 C 694.308594 737.695312 721.121094 775.1875 732.878906 779.140625 C 741.90625 782.144531 757.191406 796.574219 766.421875 801.054688 C 754.289062 816.410156 730.800781 847.953125 730.800781 862.484375 C 730.800781 882.144531 756.441406 913.039062 766.246094 920.867188 C 776.027344 928.671875 804.191406 934.625 810.019531 954.210938 C 815.921875 973.820312 805.917969 1039.832031 788.308594 1057.464844 C 770.597656 1075.097656 764.167969 1116.796875 764.167969 1116.796875 C 764.167969 1116.796875 770.398438 1130.328125 791.257812 1116.796875 C 814.320312 1101.863281 852.941406 1059.339844 868.375 1050.085938 C 897.789062 1032.402344 926.382812 1010.941406 953.847656 985.476562 C 981.308594 959.988281 971.355469 942.128906 985.113281 916.691406 C 998.84375 891.199219 1016.605469 892.351562 1040.117188 870.839844 C 1063.679688 849.226562 1047.21875 853.503906 1021.707031 843.675781 Z M 1021.707031 843.675781 " fill-opacity="1" fill-rule="nonzero"/><g transform="matrix(1, 0, 0, 1, 224, 390)"><g clip-path="url(#67c849e55c)"><g fill="#412e8f" fill-opacity="1"><g transform="translate(52.649582, 736.749506)"><g><path d="M 7.0625 6.578125 L 75.328125 -66.78125 L 91.640625 -51.609375 L 23.375 21.75 Z M 19.53125 18.1875 L 32.6875 4.046875 L 72.90625 41.46875 L 59.75 55.609375 Z M 48.0625 -12.46875 L 60.71875 -26.078125 L 97.296875 7.953125 L 84.640625 21.5625 Z M 74.75 -41.15625 L 87.796875 -55.171875 L 127.5 -18.25 L 114.453125 -4.234375 Z M 74.75 -41.15625 "/></g></g></g><g fill="#412e8f" fill-opacity="1"><g transform="translate(124.710934, 803.548935)"><g><path d="M 8.109375 5.25 L 62.578125 -78.875 L 75.671875 -70.390625 L 70.390625 -49.96875 L 26.8125 17.359375 Z M 66.125 42.8125 L 57.671875 -52.796875 L 75.671875 -70.390625 L 84.125 25.1875 Z M 66.125 42.8125 L 72.015625 22.78125 L 115.609375 -44.546875 L 134.3125 -32.4375 L 79.84375 51.6875 Z M 66.125 42.8125 "/></g></g></g><g fill="#412e8f" fill-opacity="1"><g transform="translate(223.121969, 866.23121)"><g><path d="M 52.3125 22.484375 C 45.550781 19.785156 39.691406 16.023438 34.734375 11.203125 C 29.773438 6.378906 25.960938 0.921875 23.296875 -5.171875 C 20.628906 -11.265625 19.203125 -17.738281 19.015625 -24.59375 C 18.835938 -31.445312 20.09375 -38.257812 22.78125 -45.03125 C 25.46875 -51.800781 29.238281 -57.578125 34.09375 -62.359375 C 38.957031 -67.148438 44.515625 -70.820312 50.765625 -73.375 C 57.023438 -75.925781 63.671875 -77.203125 70.703125 -77.203125 C 77.734375 -77.210938 84.726562 -75.835938 91.6875 -73.078125 C 99.6875 -69.898438 106.378906 -65.554688 111.765625 -60.046875 C 117.160156 -54.546875 121.003906 -48.390625 123.296875 -41.578125 L 103.578125 -33.078125 C 102.117188 -38.128906 99.753906 -42.425781 96.484375 -45.96875 C 93.210938 -49.507812 89.023438 -52.296875 83.921875 -54.328125 C 78.460938 -56.492188 73.097656 -57.222656 67.828125 -56.515625 C 62.566406 -55.816406 57.859375 -53.769531 53.703125 -50.375 C 49.554688 -46.976562 46.328125 -42.378906 44.015625 -36.578125 C 41.703125 -30.765625 40.859375 -25.1875 41.484375 -19.84375 C 42.117188 -14.507812 44.015625 -9.789062 47.171875 -5.6875 C 50.328125 -1.582031 54.585938 1.535156 59.953125 3.671875 C 65.398438 5.835938 70.445312 6.644531 75.09375 6.09375 C 79.75 5.550781 83.882812 3.734375 87.5 0.640625 C 91.125 -2.453125 94.054688 -6.8125 96.296875 -12.4375 L 106.34375 2.25 L 65.046875 -14.921875 L 72.015625 -32.46875 L 120.953125 -13.03125 L 119.75 -10 C 115.3125 1.175781 109.582031 9.769531 102.5625 15.78125 C 95.539062 21.800781 87.71875 25.335938 79.09375 26.390625 C 70.476562 27.453125 61.550781 26.148438 52.3125 22.484375 Z M 52.3125 22.484375 "/></g></g></g><g fill="#412e8f" fill-opacity="1"><g transform="translate(337.497902, 909.229118)"><g><path d="M 9.453125 1.953125 L 29.78125 -96.1875 L 51.59375 -91.65625 L 31.265625 6.484375 Z M 26.265625 5.4375 L 30.234375 -13.75 L 78.75 -3.6875 L 74.78125 15.5 Z M 26.265625 5.4375 "/></g></g></g><g fill="#412e8f" fill-opacity="1"><g transform="translate(423.583127, 925.509875)"><g><path d="M 9.609375 0.890625 L 18.796875 -98.90625 L 40.984375 -96.859375 L 31.796875 2.9375 Z M 9.609375 0.890625 "/></g></g></g><g fill="#412e8f" fill-opacity="1"><g transform="translate(473.140803, 930.788963)"><g><path d="M 39.765625 0.640625 C 31.535156 0.828125 24.429688 -0.351562 18.453125 -2.90625 C 12.484375 -5.46875 6.972656 -9.4375 1.921875 -14.8125 L 16.078125 -29.46875 C 19.378906 -25.863281 23.015625 -23.085938 26.984375 -21.140625 C 30.953125 -19.203125 35.539062 -18.289062 40.75 -18.40625 C 45.476562 -18.519531 49.125 -19.460938 51.6875 -21.234375 C 54.25 -23.003906 55.5 -25.398438 55.4375 -28.421875 C 55.363281 -31.160156 54.457031 -33.359375 52.71875 -35.015625 C 50.976562 -36.679688 48.695312 -38.097656 45.875 -39.265625 C 43.050781 -40.429688 39.941406 -41.539062 36.546875 -42.59375 C 33.160156 -43.644531 29.800781 -44.867188 26.46875 -46.265625 C 23.132812 -47.660156 20.046875 -49.4375 17.203125 -51.59375 C 14.359375 -53.75 12.039062 -56.488281 10.25 -59.8125 C 8.46875 -63.132812 7.515625 -67.347656 7.390625 -72.453125 C 7.242188 -78.609375 8.609375 -83.941406 11.484375 -88.453125 C 14.367188 -92.960938 18.429688 -96.4375 23.671875 -98.875 C 28.910156 -101.320312 34.988281 -102.625 41.90625 -102.78125 C 48.90625 -102.945312 55.34375 -101.867188 61.21875 -99.546875 C 67.09375 -97.222656 71.976562 -93.972656 75.875 -89.796875 L 61.71875 -75.140625 C 58.613281 -78.191406 55.503906 -80.4375 52.390625 -81.875 C 49.285156 -83.320312 45.789062 -84 41.90625 -83.90625 C 38.03125 -83.820312 34.972656 -83.019531 32.734375 -81.5 C 30.503906 -79.976562 29.421875 -77.847656 29.484375 -75.109375 C 29.546875 -72.546875 30.445312 -70.5 32.1875 -68.96875 C 33.925781 -67.445312 36.203125 -66.148438 39.015625 -65.078125 C 41.835938 -64.015625 44.941406 -62.953125 48.328125 -61.890625 C 51.710938 -60.835938 55.078125 -59.59375 58.421875 -58.15625 C 61.773438 -56.726562 64.875 -54.882812 67.71875 -52.625 C 70.5625 -50.363281 72.875 -47.476562 74.65625 -43.96875 C 76.445312 -40.46875 77.40625 -36.113281 77.53125 -30.90625 C 77.75 -21.363281 74.515625 -13.789062 67.828125 -8.1875 C 61.140625 -2.582031 51.785156 0.359375 39.765625 0.640625 Z M 39.765625 0.640625 "/></g></g></g><g fill="#412e8f" fill-opacity="1"><g transform="translate(566.610039, 928.569698)"><g><path d="M 9.46875 -1.859375 L -9.78125 -100.21875 L 12.09375 -104.484375 L 31.34375 -6.125 Z M 70.359375 -13.765625 L 51.109375 -112.125 L 73.109375 -116.4375 L 92.359375 -18.078125 Z M 14.53125 -45.515625 L 10.828125 -64.46875 L 65.84375 -75.234375 L 69.546875 -56.28125 Z M 14.53125 -45.515625 "/></g></g></g><g fill="#412e8f" fill-opacity="1"><g transform="translate(675.859357, 904.330064)"><g/></g></g><g fill="#412e8f" fill-opacity="1"><g transform="translate(709.187161, 894.639898)"><g><path d="M 8.828125 -3.90625 L -31.765625 -95.53125 L -11.390625 -104.5625 L 29.203125 -12.9375 Z M 8.46875 -46.765625 L 0.71875 -64.28125 L 46.53125 -84.578125 L 54.28125 -67.0625 Z M -8.4375 -84.921875 L -16.1875 -102.4375 L 31.6875 -123.65625 L 39.4375 -106.140625 Z M -8.4375 -84.921875 "/></g></g></g><g fill="#412e8f" fill-opacity="1"><g transform="translate(796.209114, 856.480038)"><g><path d="M 48.484375 -30.921875 C 42.234375 -26.671875 35.71875 -23.84375 28.9375 -22.4375 C 22.164062 -21.039062 15.453125 -20.9375 8.796875 -22.125 C 2.148438 -23.3125 -4.035156 -25.765625 -9.765625 -29.484375 C -15.492188 -33.210938 -20.40625 -38.085938 -24.5 -44.109375 C -28.65625 -50.210938 -31.394531 -56.585938 -32.71875 -63.234375 C -34.039062 -69.890625 -34.0625 -76.484375 -32.78125 -83.015625 C -31.507812 -89.554688 -28.960938 -95.695312 -25.140625 -101.4375 C -21.328125 -107.175781 -16.289062 -112.175781 -10.03125 -116.4375 C -3.84375 -120.644531 2.617188 -123.46875 9.359375 -124.90625 C 16.097656 -126.351562 22.757812 -126.484375 29.34375 -125.296875 C 35.9375 -124.117188 42.097656 -121.671875 47.828125 -117.953125 C 53.554688 -114.242188 58.5 -109.335938 62.65625 -103.234375 C 66.757812 -97.203125 69.484375 -90.835938 70.828125 -84.140625 C 72.171875 -77.453125 72.207031 -70.84375 70.9375 -64.3125 C 69.664062 -57.78125 67.128906 -51.617188 63.328125 -45.828125 C 59.535156 -40.046875 54.585938 -35.078125 48.484375 -30.921875 Z M 36.84375 -47.546875 C 41.78125 -50.898438 45.359375 -54.9375 47.578125 -59.65625 C 49.796875 -64.382812 50.582031 -69.410156 49.9375 -74.734375 C 49.289062 -80.066406 47.207031 -85.316406 43.6875 -90.484375 C 41.03125 -94.390625 38.035156 -97.53125 34.703125 -99.90625 C 31.378906 -102.28125 27.832031 -103.875 24.0625 -104.6875 C 20.300781 -105.507812 16.5 -105.5 12.65625 -104.65625 C 8.820312 -103.820312 5.066406 -102.15625 1.390625 -99.65625 C -3.535156 -96.300781 -7.125 -92.285156 -9.375 -87.609375 C -11.632812 -82.929688 -12.460938 -77.960938 -11.859375 -72.703125 C -11.265625 -67.453125 -9.1875 -62.203125 -5.625 -56.953125 C -2.96875 -53.046875 0.0351562 -49.890625 3.390625 -47.484375 C 6.753906 -45.078125 10.300781 -43.453125 14.03125 -42.609375 C 17.757812 -41.765625 21.570312 -41.75 25.46875 -42.5625 C 29.375 -43.382812 33.164062 -45.046875 36.84375 -47.546875 Z M 36.84375 -47.546875 "/></g></g></g><g fill="#412e8f" fill-opacity="1"><g transform="translate(899.055018, 783.967392)"><g><path d="M -10.34375 -48.09375 L -21.984375 -59.734375 L -7.03125 -74.6875 C -3.882812 -77.832031 -2.257812 -81.0625 -2.15625 -84.375 C -2.0625 -87.6875 -3.382812 -90.710938 -6.125 -93.453125 C -8.664062 -95.992188 -11.609375 -97.265625 -14.953125 -97.265625 C -18.304688 -97.273438 -21.554688 -95.707031 -24.703125 -92.5625 L -39.75 -77.5 L -51.984375 -89.734375 L -35.125 -106.59375 C -30.445312 -111.28125 -25.445312 -114.507812 -20.125 -116.28125 C -14.8125 -118.0625 -9.578125 -118.378906 -4.421875 -117.234375 C 0.734375 -116.097656 5.351562 -113.488281 9.4375 -109.40625 C 13.582031 -105.257812 16.207031 -100.625 17.3125 -95.5 C 18.414062 -90.382812 18.03125 -85.148438 16.15625 -79.796875 C 14.28125 -74.453125 10.898438 -69.335938 6.015625 -64.453125 Z M 6.828125 -6.828125 L -64.03125 -77.6875 L -48.28125 -93.4375 L 22.578125 -22.578125 Z M 45.359375 -45.359375 L -7.21875 -53.8125 L 3.3125 -72.171875 L 64.03125 -64.03125 Z M 45.359375 -45.359375 "/></g></g></g><g fill="#412e8f" fill-opacity="1"><g transform="translate(968.459399, 711.374589)"><g/></g></g><g fill="#412e8f" fill-opacity="1"><g transform="translate(992.052891, 684.743927)"><g><path d="M 1.125 -1.8125 L -63.203125 -88.328125 L -52.609375 -105.46875 L 53.3125 -86.203125 L 40.921875 -66.171875 L -45.65625 -84.328125 L -41.40625 -91.1875 L 13.28125 -21.484375 Z M -2.453125 -30.578125 L -17.90625 -40.125 L 10.828125 -86.609375 L 26.28125 -77.0625 Z M -2.453125 -30.578125 "/></g></g></g><g fill="#412e8f" fill-opacity="1"><g transform="translate(1050.928774, 586.62508)"><g><path d="M 9.8125 -24.8125 L -6.28125 -31.1875 L 2.390625 -53.09375 C 3.992188 -57.144531 4.054688 -60.78125 2.578125 -64 C 1.109375 -67.226562 -1.335938 -69.523438 -4.765625 -70.890625 C -7.148438 -71.828125 -9.472656 -72.128906 -11.734375 -71.796875 C -13.992188 -71.472656 -16.023438 -70.578125 -17.828125 -69.109375 C -19.640625 -67.648438 -21.085938 -65.550781 -22.171875 -62.8125 L -30.84375 -40.90625 L -46.546875 -47.109375 L -38.546875 -67.3125 C -37.191406 -70.738281 -36.953125 -73.847656 -37.828125 -76.640625 C -38.710938 -79.429688 -40.910156 -81.519531 -44.421875 -82.90625 C -47.859375 -84.269531 -50.851562 -84.234375 -53.40625 -82.796875 C -55.96875 -81.367188 -57.925781 -78.941406 -59.28125 -75.515625 L -67.28125 -55.3125 L -83.375 -61.6875 L -73.8125 -85.84375 C -71.445312 -91.820312 -68.335938 -96.46875 -64.484375 -99.78125 C -60.628906 -103.09375 -56.414062 -105.117188 -51.84375 -105.859375 C -47.28125 -106.597656 -42.753906 -106.082031 -38.265625 -104.3125 C -32.546875 -102.039062 -28.4375 -98.269531 -25.9375 -93 C -23.4375 -87.738281 -22.875 -81.210938 -24.25 -73.421875 L -31.015625 -76.703125 C -26.429688 -83.929688 -21.003906 -88.773438 -14.734375 -91.234375 C -8.460938 -93.691406 -1.976562 -93.597656 4.71875 -90.953125 C 9.820312 -88.929688 13.914062 -85.859375 17 -81.734375 C 20.09375 -77.617188 21.894531 -72.734375 22.40625 -67.078125 C 22.925781 -61.429688 21.878906 -55.304688 19.265625 -48.703125 Z M 3.546875 -8.984375 L -89.640625 -45.859375 L -81.546875 -66.3125 L 11.640625 -29.4375 Z M 3.546875 -8.984375 "/></g></g></g><g fill="#412e8f" fill-opacity="1"><g transform="translate(1087.534409, 491.910378)"><g><path d="M -34.859375 -34.703125 L -50.96875 -38.125 L -46.5625 -58.8125 C -45.644531 -63.164062 -46.046875 -66.753906 -47.765625 -69.578125 C -49.484375 -72.410156 -52.238281 -74.234375 -56.03125 -75.046875 C -59.539062 -75.785156 -62.703125 -75.242188 -65.515625 -73.421875 C -68.328125 -71.609375 -70.195312 -68.523438 -71.125 -64.171875 L -75.546875 -43.34375 L -92.484375 -46.9375 L -87.53125 -70.25 C -86.144531 -76.726562 -83.703125 -82.160156 -80.203125 -86.546875 C -76.710938 -90.929688 -72.5 -94.050781 -67.5625 -95.90625 C -62.625 -97.757812 -57.328125 -98.082031 -51.671875 -96.875 C -45.929688 -95.65625 -41.203125 -93.203125 -37.484375 -89.515625 C -33.773438 -85.828125 -31.25 -81.226562 -29.90625 -75.71875 C -28.5625 -70.21875 -28.609375 -64.085938 -30.046875 -57.328125 Z M 2 -9.4375 L -96.03125 -30.265625 L -91.390625 -52.0625 L 6.640625 -31.234375 Z M 13.34375 -62.75 L -35.375 -41.1875 L -36.53125 -62.328125 L 18.828125 -88.578125 Z M 13.34375 -62.75 "/></g></g></g><g fill="#412e8f" fill-opacity="1"><g transform="translate(1109.10606, 390.007492)"><g><path d="M 2.9375 -57.4375 C 2.769531 -49.875 1.296875 -42.925781 -1.484375 -36.59375 C -4.273438 -30.269531 -8.085938 -24.742188 -12.921875 -20.015625 C -17.753906 -15.285156 -23.34375 -11.664062 -29.6875 -9.15625 C -36.039062 -6.644531 -42.859375 -5.46875 -50.140625 -5.625 C -57.523438 -5.78125 -64.3125 -7.242188 -70.5 -10.015625 C -76.6875 -12.796875 -82.070312 -16.601562 -86.65625 -21.4375 C -91.238281 -26.28125 -94.757812 -31.914062 -97.21875 -38.34375 C -99.6875 -44.78125 -100.84375 -51.785156 -100.6875 -59.359375 C -100.519531 -66.835938 -99.066406 -73.742188 -96.328125 -80.078125 C -93.585938 -86.410156 -89.828125 -91.914062 -85.046875 -96.59375 C -80.265625 -101.269531 -74.695312 -104.863281 -68.34375 -107.375 C -62 -109.894531 -55.132812 -111.078125 -47.75 -110.921875 C -40.457031 -110.765625 -33.695312 -109.296875 -27.46875 -106.515625 C -21.238281 -103.734375 -15.832031 -99.925781 -11.25 -95.09375 C -6.664062 -90.269531 -3.113281 -84.632812 -0.59375 -78.1875 C 1.914062 -71.738281 3.09375 -64.820312 2.9375 -57.4375 Z M -17.375 -57.578125 C -17.25 -63.546875 -18.460938 -68.804688 -21.015625 -73.359375 C -23.566406 -77.910156 -27.203125 -81.46875 -31.921875 -84.03125 C -36.640625 -86.59375 -42.125 -87.941406 -48.375 -88.078125 C -53.101562 -88.171875 -57.398438 -87.550781 -61.265625 -86.21875 C -65.128906 -84.882812 -68.484375 -82.921875 -71.328125 -80.328125 C -74.179688 -77.742188 -76.378906 -74.644531 -77.921875 -71.03125 C -79.472656 -67.414062 -80.296875 -63.382812 -80.390625 -58.9375 C -80.515625 -52.976562 -79.320312 -47.722656 -76.8125 -43.171875 C -74.300781 -38.617188 -70.734375 -35.0625 -66.109375 -32.5 C -61.484375 -29.945312 -56 -28.601562 -49.65625 -28.46875 C -44.925781 -28.363281 -40.609375 -28.976562 -36.703125 -30.3125 C -32.796875 -31.65625 -29.414062 -33.597656 -26.5625 -36.140625 C -23.71875 -38.679688 -21.5 -41.773438 -19.90625 -45.421875 C -18.3125 -49.078125 -17.46875 -53.128906 -17.375 -57.578125 Z M -17.375 -57.578125 "/></g></g></g><g fill="#412e8f" fill-opacity="1"><g transform="translate(1110.12086, 263.698506)"><g><path d="M -0.375 -2.09375 L -106 -23.640625 L -109.53125 -43.484375 L -17.78125 -99.78125 L -13.640625 -76.59375 L -90.25 -32.375 L -91.671875 -40.328125 L -4.4375 -24.875 Z M -22.21875 -21.125 L -40.109375 -17.9375 L -49.703125 -71.75 L -31.8125 -74.9375 Z M -22.21875 -21.125 "/></g></g></g><g fill="#412e8f" fill-opacity="1"><g transform="translate(1088.942818, 150.478526)"><g><path d="M -8.875 -23.046875 L -27.15625 -16 L -36.078125 -39.1875 C -38.253906 -44.832031 -41.28125 -49.34375 -45.15625 -52.71875 C -49.039062 -56.09375 -53.585938 -58.097656 -58.796875 -58.734375 C -64.015625 -59.367188 -69.582031 -58.550781 -75.5 -56.28125 C -81.425781 -54 -86.054688 -50.867188 -89.390625 -46.890625 C -92.722656 -42.921875 -94.726562 -38.394531 -95.40625 -33.3125 C -96.09375 -28.226562 -95.347656 -22.863281 -93.171875 -17.21875 L -83.984375 6.625 L -102.140625 13.609375 L -111.4375 -10.5 C -114.15625 -17.570312 -115.535156 -24.519531 -115.578125 -31.34375 C -115.617188 -38.164062 -114.398438 -44.613281 -111.921875 -50.6875 C -109.441406 -56.757812 -105.820312 -62.101562 -101.0625 -66.71875 C -96.300781 -71.34375 -90.472656 -74.984375 -83.578125 -77.640625 C -76.773438 -80.253906 -70.035156 -81.453125 -63.359375 -81.234375 C -56.679688 -81.023438 -50.414062 -79.507812 -44.5625 -76.6875 C -38.71875 -73.863281 -33.5 -69.914062 -28.90625 -64.84375 C -24.320312 -59.769531 -20.6875 -53.742188 -18 -46.765625 Z M -3.46875 -9.015625 L -97 26.984375 L -105 6.1875 L -11.46875 -29.8125 Z M -3.46875 -9.015625 "/></g></g></g></g></g></svg>