<svg xmlns="http://www.w3.org/2000/svg" width="500" zoomAndPan="magnify" viewBox="0 0 375 375" height="500" preserveAspectRatio="xMidYMid meet" xmlns:v="https://vecta.io/nano"><style><![CDATA[.B{clip-rule:nonzero}.C{fill:#fff}]]></style><defs><clipPath id="A"><path d="M59 85h257v233H59zm0 0" class="B"/></clipPath><clipPath id="B"><path d="M32.957 0l300.461 32.828-32.988 301.953L-.031 301.953zm0 0" class="B"/></clipPath><clipPath id="C"><path d="M32.957 0l300.461 32.828-32.988 301.953L-.031 301.953zm0 0" class="B"/></clipPath><clipPath id="D"><path d="M15 15h296v277H15zm0 0" class="B"/></clipPath><clipPath id="E"><path d="M32.957 0l300.461 32.828-32.988 301.953L-.031 301.953zm0 0" class="B"/></clipPath><clipPath id="F"><path d="M32.957 0l300.461 32.828-32.988 301.953L-.031 301.953zm0 0" class="B"/></clipPath><clipPath id="G"><path d="M37.258 37.746h259v259h-259zm0 0" class="B"/></clipPath><clipPath id="H"><path d="M166.758 37.746c-71.523 0-129.5 57.977-129.5 129.5s57.977 129.5 129.5 129.5 129.5-57.98 129.5-129.5-57.98-129.5-129.5-129.5zm0 0" class="B"/></clipPath><clipPath id="I"><path d="M123.086 143.945h45.219v28.234h-45.219zm0 0" class="B"/></clipPath><clipPath id="J"><path d="M137.203 143.945h16.898a14.12 14.12 0 0 1 14.117 14.117 14.12 14.12 0 0 1-14.117 14.117h-16.898a14.12 14.12 0 0 1-14.117-14.117 14.12 14.12 0 0 1 14.117-14.117zm0 0" class="B"/></clipPath><clipPath id="K"><path d="M296.895 149.285h45.219v28.234h-45.219zm0 0" class="B"/></clipPath><clipPath id="L"><path d="M311.012 149.285h16.898c7.793 0 14.117 6.32 14.117 14.117s-6.324 14.117-14.117 14.117h-16.898a14.12 14.12 0 0 1-14.117-14.117 14.12 14.12 0 0 1 14.117-14.117zm0 0" class="B"/></clipPath><clipPath id="M"><path d="M123 131h41v47h-41zm0 0" class="B"/></clipPath><clipPath id="N"><path d="M144.051 131.645l19.914 12.512-20.969 33.363-19.91-12.512zm0 0" class="B"/></clipPath><clipPath id="O"><path d="M350 155h12v11h-12zm0 0" class="B"/></clipPath><clipPath id="P"><path d="M362.66 161.996l-4.137 5.051-9.055-7.426 4.141-5.047zm0 0" class="B"/></clipPath><clipPath id="Q"><path d="M360.594 164.52a3.27 3.27 0 0 1-4.598.457L352 161.699a3.27 3.27 0 0 1-.453-4.598c1.145-1.395 3.199-1.598 4.594-.453l3.996 3.277c1.395 1.145 1.598 3.203.457 4.594zm0 0" class="B"/></clipPath><clipPath id="R"><path d="M37.629 36.656h261v261h-261zm0 0" class="B"/></clipPath></defs><g class="C"><path d="M-37.5-37.5h450v450h-450z"/><path d="M-37.5-37.5h450v450h-450z"/></g><g clip-path="url(#A)" class="C"><g clip-path="url(#B)"><g clip-path="url(#C)"><path d="M312.043 205.48c-2.281 12.766-4.59 25.633-9.223 37.758-12.328 32.23-41.176 57.195-74.465 67.887s-70.406 7.746-102.898-5.371c-13.613-5.492-26.77-12.914-36.418-23.855-12.426-14.105-17.949-32.73-22.34-50.875-7.488-30.906-12.297-65.148 3.191-92.941 4.867-8.734 20.172-31.797 34.016-36.297 58.453-19.012 124.102-27.395 174.148 8.164 15.77 11.195 30.008 25.938 35.285 44.332 4.738 16.598 1.742 34.242-1.297 51.199zm0 0"/></g></g></g><g clip-path="url(#D)"><g clip-path="url(#E)"><g clip-path="url(#F)"><path fill="#155e75" d="M224.223 61.078c-23.059-11.312-49.555-15.43-74.855-10.586-24.18 4.621-46.906 16.801-64.57 33.887-17.953 17.363-30.633 39.848-35.402 64.418-4.855 25.012-1.629 51.691 8.863 74.891 5 11.055 11.672 21.504 19.957 30.375 8.266 8.859 18.07 16.098 28.781 21.738 22.523 11.859 48.938 16.715 74.262 15.297 24.434-1.375 48.641-9.555 67.445-25.512 18.914-16.051 31.266-38.477 37.137-62.402 1.504-6.129 2.586-12.359 3.285-18.641 2.684-24.941-.555-51.008-12.227-73.461-11.367-21.902-30.645-39.187-52.676-50.004zm61.086 123.047c-2.672 24.105-11.359 47.734-27.062 66.449-15.316 18.242-36.645 29.984-59.934 34.547-24.152 4.723-50.059 2.512-73.254-5.648-11.246-3.957-21.949-9.453-31.461-16.66-9.402-7.129-17.332-15.875-23.73-25.766-13.242-20.449-19.629-45.172-18.73-69.445.914-24.605 9.609-48.23 24.758-67.641 14.629-18.742 34.781-33.148 57.188-41.09 23.555-8.344 49.164-8.598 72.949-.977 22.887 7.328 43.82 21.461 58.426 40.641 14.578 19.141 21.352 43.313 21.719 67.172.098 6.152-.211 12.297-.867 18.418zm-35.961-82.012s24.125 32.773 17.668 43.332c-4.215 6.879-8.766 4.941-10.32-4.395-1.555-9.352-6.285-10.461-8.941-9.477-6.039 2.238-4.785 15.273 4.613 23.5 9.414 8.238 10.305 23.539-2.293 32.656s-9.117 14.992-12.793 19.176-12.594 9.102-31.203 19.52-2.367-19.094 4.137-31.492-3.246-35.09-13.508-47.348-20.52-8.984-30.777-21.242 8.48-12.836 7.199-20.187c-1.297-7.352-6.914-5.996-9.246-14.117-1.355-4.691 5.469-7.395 12.109-9.027 1.758-.426 1.5-3.004-.305-3.098-4.98-.273-10.77-.414-15.633-.086-11.039.766-10.77 17.273-23.129 17.133-13.602-.16-22.402-13.648-20.98-14.664 1.438-1.016 40.242-25.395 84.078-12.328 30.586 9.125 49.324 32.145 49.324 32.145zm-95.895 158.074c-5.937 3.457-15.898 7.055-15.898 7.055s-43.332-20.172-57.512-46.734c-18.062-33.852-9.109-59.574-9.109-59.574s24.965-10.738 29.762 7.59 8.219 7.965 17.723 32.566c9.504 24.609 6.488 41.016 21.555 41.813s19.422 13.824 13.48 17.285zm84.027-29.996c-5.66 8.199-26.039 21.047-16.641 2.543-.016 0 22.297-10.73 16.641-2.543zm23.781-28.676c12.957-.281 9.445 20.191 4.336 22.414-3.348 1.449-3.254-3.215-5.172-5.691s-4.996 4.398-11.305 3.684c-6.309-.727-1.832-5.75.98-11.687 2.824-5.945-4.039-8.395 11.16-8.719zm-236.625 44.75c-.102-.27-.187-.547-.273-.816-2.012-6.09-3.527-12.355-4.812-18.637a217.81 217.81 0 0 1-4.293-36.957c-.488-16.25.805-32.547 4.328-48.437 4.109-18.527 11.16-36.281 21.152-52.43 11.059-17.91 25.688-33.977 42.688-46.406 14.289-10.453 30.426-18.152 47.594-22.48 14.867-3.746 30.34-4.875 45.625-3.875 13.141.871 26.145 3.332 38.785 7.008 9.148 2.66 18.105 5.969 26.762 9.938 3.508 1.609 7.016 3.305 10.344 5.25 2.129 1.25-.176 4.332-2.281 3.086-.203-.125-.41-.238-.617-.352.605.352-.098-.047-.402-.223l-1.094-.582c-1.035-.551-2.07-1.078-3.109-1.59-3.066-1.52-6.18-2.93-9.332-4.262-9.473-4.012-19.285-7.297-29.281-9.742-13.062-3.203-26.5-5.004-39.961-5.059-15.379-.059-30.84 2.293-45.387 7.336-17.18 5.949-32.848 15.504-46.422 27.563-15.617 13.887-28.672 30.754-37.953 49.461-7.926 15.988-13.129 33.211-15.699 50.867-2.195 15-2.559 30.242-1.328 45.352.898 10.898 2.57 21.742 5.113 32.383a168.97 168.97 0 0 0 1.336 5.246l.59 2.125.289.996.113.387c0 .012 0 .012.012.023.328 1.094.66 2.188 1.035 3.258.813 2.328-2.691 3.887-3.52 1.57zm2.621 21.352c-.012-.004-.023-.004-.035-.02.012.004.027.004.035.02zm9.391-1.32l-.75-2.937c.004-.016-.012-.016-.008-.027-.023-.156-.07-.316-.133-.453-.02-.039-.043-.055-.066-.086a1.9 1.9 0 0 0-.543-.676c-.383-.285-.98-.453-1.457-.352-.129.023-.266.074-.387.125-.027.008-.066.004-.09.016l-6.324 2.129c-.414.133-.867.637-1.004 1.047-.148.422-.168.832-.031 1.258.215.723.773 1.168 1.438 1.316.07.063.145.105.203.164.012.016.035.031.055.059.039.031.059.059.07.07.184.203.383.402.566.605.898.973 1.809 1.934 3.004 2.543.672.344 1.441.465 2.188.367.93-.133 1.684-.668 2.297-1.348.203-.223.387-.457.543-.711.375-.617.84-1.34.691-2.09-.078-.367-.184-.687-.262-1.02zm-9.363 1.332c-.336-.113-.254-.18-.051-.027.016 0 .012.012.023.016.027.012.051.016.09.035.148.027.305.031.457.023-.152.008-.32.016-.207.027.18.02.078.098-.242-.039-.012 0-.012 0-.023-.004-.023-.016-.035-.016-.062-.031zm.047.02c.039.016.074.035.086.035-.035-.004-.047-.02-.074-.02zM308.535 73.457l-10.211-10.488c.109-2.988.508-5.941.887-8.914.203-1.625.379-3.254.469-4.895.07-1.355.176-2.797-.539-4.008-.816-1.391-2.48-1.934-3.977-1.336s-2.367 2.02-3.059 3.398c-1.039 2.086-1.937 4.27-2.844 6.434l-6.711-6.898c-.801-.82-1.824-1.68-2.191-2.816-.371-1.184-.238-2.535-.32-3.766-.164-2.168-1.105-4.254-3.043-5.395-5.359-3.145-7.816 5.547-8.488 9.219-.809 4.469 1.004 8.027 3.723 11.078l-6.43.266-8.414.559c-2.422.227-6.789.625-5.602 4.242 1.102 3.34 5.637 4.52 8.598 5.332 4.137 1.133 8.289 2.258 12.508 3.117 3.941.805 8.117 1 11.902 2.418 3.648 1.367 6.363 4.211 9.465 6.457 3.066 2.227 6.879 3.98 10.762 3.441 1.688-.242 3.719-.945 4.633-2.48 1.031-1.754.141-3.617-1.117-4.965zm-13.684-22.98c.258-.617.52-1.246.816-1.844a6.02 6.02 0 0 1 .203-.301c-.156 3.668-.785 7.293-1.156 10.934l-2.547-2.621 2.684-6.168zm9.785 26.598c-1.363.238-2.766-.008-4.055-.469-2.949-1.055-5.266-3.176-7.684-5.102-2.437-1.937-5.012-3.609-8.027-4.508-3.18-.953-6.492-1.273-9.762-1.875-3.484-.641-6.918-1.492-10.344-2.406-2.641-.715-6.039-1.176-8.328-2.855.051-.004.105-.027.145-.02 1.094-.125 2.188-.215 3.277-.301 2.313-.184 4.629-.316 6.945-.426l6.906-.273 2.375-.078c.078-.004.297-.004.441-.016.027.004.039.004.066-.004.063-.008.09-.004 0 0 1.871-.043 2.895-2.129 1.352-3.445-1.941-1.652-3.984-3.449-5.094-5.797-1.281-2.754-.582-5.625.461-8.332.195-.504.902-3.078 1.48-3.211.992-.211 1.387 2.07 1.434 2.578.254 2.719.141 5.063 2.035 7.277 2.031 2.387 4.383 4.547 6.574 6.781l6.828 7.016 13.879 14.25c.059.059.461.617.582.668-.465.262-.949.453-1.488.547zm1.648-.465c.184.098.043.082 0 0zm0 0"/></g></g></g><g clip-path="url(#G)" class="C"><g clip-path="url(#H)"><path d="M37.258 37.746h259v259h-259zm0 0"/></g></g><g clip-path="url(#I)" class="C"><g clip-path="url(#J)"><path d="M123.086 143.945h45.109v28.234h-45.109zm0 0"/></g></g><g clip-path="url(#K)" class="C"><g clip-path="url(#L)"><path d="M296.895 149.285h45.109v28.234h-45.109zm0 0"/></g></g><g clip-path="url(#M)" class="C"><g clip-path="url(#N)"><path d="M144.051 131.645l19.914 12.512-20.973 33.367-19.91-12.512zm0 0"/></g></g><g clip-path="url(#O)" class="C"><g clip-path="url(#P)"><g clip-path="url(#Q)"><path d="M362.66 161.996l-4.137 5.051-9.055-7.426 4.141-5.047zm0 0"/></g></g></g><g clip-path="url(#R)"><path fill="#85cbcc" d="M298.793 167.238l-.156 6.406-.473 6.395-.785 6.359-1.094 6.316-1.406 6.254-1.707 6.176-2.012 6.086-2.305 5.98-2.598 5.859-2.883 5.727-3.16 5.574-3.43 5.414-3.687 5.242-3.945 5.051-4.184 4.855-4.422 4.641-4.641 4.418-4.855 4.188-5.051 3.945-5.242 3.688-5.414 3.43-5.574 3.16-5.727 2.883-5.859 2.598-5.98 2.305-6.086 2.012-6.176 1.707-6.254 1.406-6.316 1.094-6.359.785-6.391.473-6.41.156c-2.137 0-4.273-.051-6.406-.156l-6.391-.473-6.363-.785-6.312-1.094-6.254-1.406-6.18-1.707-6.086-2.012-5.977-2.305-5.859-2.598-5.727-2.883-5.578-3.16-5.414-3.43-5.238-3.687-5.055-3.945-4.852-4.187-4.645-4.418-4.418-4.641-4.187-4.855-3.941-5.051-3.691-5.242-3.43-5.414-3.156-5.574-2.883-5.727-2.598-5.859-2.309-5.98-2.008-6.086-1.711-6.176-1.402-6.254-1.098-6.316-.785-6.359-.469-6.395-.16-6.406.16-6.406.469-6.391.785-6.363 1.098-6.312 1.402-6.254 1.711-6.18 2.008-6.086 2.309-5.98 2.598-5.859 2.883-5.723 3.156-5.578 3.43-5.414 3.691-5.238 3.941-5.055 4.188-4.852 4.418-4.645 4.645-4.418 4.852-4.187 5.055-3.941 5.238-3.691 5.414-3.43 5.578-3.16 5.727-2.879 5.859-2.598 5.977-2.309 6.086-2.008 6.18-1.711 6.254-1.402 6.313-1.098 6.363-.785 6.391-.473 6.406-.156 6.41.156 6.391.473 6.359.785 6.316 1.098 6.254 1.402 6.176 1.711 6.086 2.008 5.98 2.309 5.859 2.598 5.727 2.879 5.574 3.16 5.414 3.43L246 62.355l5.051 3.941 4.855 4.188 4.641 4.418 4.422 4.645 4.184 4.852 3.945 5.055 3.688 5.238 3.43 5.414 3.16 5.578 2.883 5.723 2.598 5.859 2.305 5.98 2.012 6.086 1.707 6.18 1.406 6.254 1.094 6.313.785 6.363.473 6.391.156 6.406zm0 0"/></g><path d="M256.211 208.938c-7.379-2.828-6.066-1.797-10.613-11.469-4.551-9.664-7.305-12.773-17.535-13.906-10.238-1.125-9.852-.328-12.695-5.441-2.844-5.121-14.379 1.387-21.766 4.238-7.406 2.844-5.578 9.039-7.855 8.457-2.285-.566-8.031-2.039-13.734-6.578-5.687-4.559 4.23-8.113 7.082-10.949 2.852-2.852-5.367-1.297-8.219-3.02-2.852-1.695-7.953 3.418-12.5-1.145-4.555-4.547-1.703-11.375-2.27-17.062-.574-5.695 7.383-6.828 12.504-7.965s9.09.008 9.09 6.824c0 6.828 6.262 9.105 4.559 1.133s1.703-10.234 3.988-14.219c2.273-3.98 6.254-9.676 11.367-18.207 5.125-8.531 8.539-4.559 14.793-3.949 6.262.617 7.965-.602 12.516-.027 4.535.574 0-5.687 1.711-11.941 1.699-6.254 7.957-5.121 14.227-3.41 6.254 1.707-6.27-7.973-8.539-13.086-2.285-5.121-8.539 0-12.508-8.531-4.012-8.531-9.605-14.055-14.727-14.816s1.633 10.84-2.348 17.094c-4 6.254-10.121 5.273-16.398 5.273-6.246 0-12.047-5.273-7.492-13.238 4.539-7.961 13.227-7.141 17.773-13.965 4.555-6.82-16.18-6.195-23.578-8.469s-16.277-2.254-23.672 3.434c-7.398 5.68-23.223 7.457-29.48 9.727s-7.379-3.77-8.512-8.328c-.508-2.023-2.812-2.66-6.062-2.59-16.105 8.879-30.059 21.125-41.105 35.699 1.719 5.855 10.047-1.371 11.68-3 1.703-1.707 10.234.57 11.367 6.824 1.141 6.254.574 13.094-1.695 18.781-2.281 5.68 5.688 13.648 10.234 21.613 4.555 7.973 9.672 7.965 11.949 7.965 2.27 0 15.355 5.121 14.785 11.375-.566 6.262 11.945 11.941 17.07 15.922 5.121 4 8.355 7.926 15 9.07 6.652 1.145 14.43 12.02 17.84 13.168 2.617.871 7.051 5.055 9.727 6.355-3.516 4.453-10.328 13.602-10.328 17.816 0 5.703 7.434 14.66 10.277 16.93s11.008 3.992 12.699 9.672c1.711 5.688-1.191 24.832-6.297 29.945-5.137 5.117-7.004 17.211-7.004 17.211s1.809 3.922 7.859 0c6.688-4.332 17.887-16.664 22.363-19.348 8.531-5.129 16.824-11.355 24.789-18.742s5.078-12.57 9.07-19.949c3.98-7.391 9.133-7.059 15.953-13.297 6.832-6.27 2.059-5.027-5.34-7.879zm0 0" class="C"/><g fill="#155e75"><path d="M23.581 295.201a6.01 6.01 0 0 1-.594-1.266l-.5-1.266a2.37 2.37 0 0 1-.078-1.453l.5-1.109a5.45 5.45 0 0 1 .75-1.062l4.219-3.937 4.219-3.812 4.547-4.187 4.563-4.078 5.719-5.156 5.766-5.094a23.78 23.78 0 0 1 2.422-1.922 7.12 7.12 0 0 1 1.422-.656 9.06 9.06 0 0 1 1.625-.391 2.44 2.44 0 0 1 .875.25 4.54 4.54 0 0 1 .781.531 8.51 8.51 0 0 1 1.484 1.406l1.297 1.656c.063.074.094.133.094.172a.15.15 0 0 0 .031.094l1.609 1.766 1.563 1.719.734.75.703.719c.469.449.754.945.859 1.484a4.45 4.45 0 0 1 .016 1.688c-.012.273-.137.516-.375.734l-.781.703c-.273.25-.562.48-.875.688-.586.48-1.309.633-2.172.453a1.65 1.65 0 0 1-.625-.281c-.187-.145-.359-.301-.516-.469a2.22 2.22 0 0 1-.484-.469 1.9 1.9 0 0 0-.484-.484l-1.937-2.078-1.984-2.016c-.387-.414-.883-.508-1.484-.281-.742.23-1.469.605-2.187 1.125l-1.984 1.703-1.906 1.641-.875.781-.844.781c-.242.219-.293.516-.156.891a2.04 2.04 0 0 0 .766 1.141l1.813 1.75 1.719 1.844.547.656.5.688a.72.72 0 0 1 .109.844l-.344.703c-.105.219-.23.43-.375.625-.18.281-.398.543-.656.781l-.812.719c-.449.418-.949.563-1.5.438-.918-.176-1.68-.598-2.281-1.266l-1.5-1.469-1.437-1.547a2.71 2.71 0 0 1-.5-.359 2.14 2.14 0 0 0-.547-.391c-.469-.156-.84-.133-1.109.063l-.906.516a4.02 4.02 0 0 0-.891.625l-2.828 2.656-2.891 2.453-.719.641-.641.578c-.699.758-1.477 1.469-2.328 2.125a1.88 1.88 0 0 0-.391.469l-.359.594c-.086.32-.078.57.016.75l.375.578.453.547 1.922 2.125 1.938 2.141c.289.313.563.641.813.984s.477.703.688 1.078c.406.781.395 1.461-.031 2.047l-.766.875a9.07 9.07 0 0 1-.812.828c-.762.695-1.617.836-2.562.422-.449-.219-.867-.453-1.25-.703s-.758-.57-1.109-.953l-1.578-1.547-1.609-1.547-1.203-1.187-1.203-1.172c-.094-.094-.242-.184-.437-.266l-.531-.578-.5-.562zm55.542 13.855l-.5.656-.437.578-4.641 6.234-4.625 6.234-1.156 1.547a15.19 15.19 0 0 1-1.187 1.516c-.625.82-1.484 1.523-2.578 2.109l-.25.031a3.3 3.3 0 0 0-.328.047 4.79 4.79 0 0 1-1.75-.266c-.563-.196-1.059-.555-1.484-1.062-.711-.699-.914-1.59-.609-2.672l1.625-6.625 1.594-6.641 1.797-7.047 1.813-7.062.563-1.875.547-1.891a2.2 2.2 0 0 1 .141-.344c.063-.125.082-.254.063-.391.02-.094.023-.172.016-.234a.69.69 0 0 0-.062-.25c-.074.012-.152.031-.234.063-.074.023-.156.055-.25.094-.156.117-.289.242-.391.375l-.312.422-6.562 8.656-6.547 8.641-1.359 1.766-1.328 1.766c-.824.914-1.68 1.645-2.562 2.188-.824.445-1.574.383-2.25-.187l-.328-.266-.344-.25c-.711-.543-.93-1.219-.656-2.031l.438-.875a9.25 9.25 0 0 0 .422-.937 37.62 37.62 0 0 1 1.531-2.312l1.656-2.234 3.969-5.312 4.016-5.375 2.109-2.703 2.094-2.672.891-1.125.859-1.078 1.391-1.969 1.437-2.062a59.25 59.25 0 0 1 1.344-1.703l1.344-1.703a11.59 11.59 0 0 0 .813-.937 11.88 11.88 0 0 1 .75-.891l1.125-1.047 1.016-1.031c.156-.113.316-.207.484-.281a2.74 2.74 0 0 0 .469-.297 1.5 1.5 0 0 1 1.75.266l.953.859a7.99 7.99 0 0 1 .891.891c.551.594.836 1.227.859 1.891l.016 1.078a2.67 2.67 0 0 1-.219 1.047l-1.047 3.453-1.047 3.453-.219.75-.187.703-.781 3.297-.844 3.328-1.078 4.094a120.29 120.29 0 0 1-1.078 4.078c-.094.273-.168.559-.219.859l-.094.828a8.32 8.32 0 0 0-.187.828 6.65 6.65 0 0 1-.172.797c-.055.305-.062.586-.031.844-.043.211.047.336.266.375.039.031.172-.02.391-.156a.43.43 0 0 1 .078-.109 3.47 3.47 0 0 0 .094-.125l4.781-6.406 4.859-6.453 2.703-3.672 2.828-3.703a5.58 5.58 0 0 1 .984-.984 13.28 13.28 0 0 1 1.172-.797c.738-.426 1.422-.32 2.047.313a31.13 31.13 0 0 0 .656.703 6.97 6.97 0 0 1 .641.75c.52.918.488 1.805-.094 2.656l-1.422 1.922a76.81 76.81 0 0 1-1.437 1.922 81.61 81.61 0 0 1-2.406 3.297l-2.422 3.25-2.297 3.266-2.328 3.281a1 1 0 0 0 .063.047zm10.664 7.938l-1.187 2.313-1.094 2.281a36.16 36.16 0 0 0-1.625 4.75 2.01 2.01 0 0 0-.125.328 2.57 2.57 0 0 1-.125.328c-.312.73-.516 1.48-.609 2.25a12.81 12.81 0 0 0-.078 2.281 3.91 3.91 0 0 0 .484 1.406 1.23 1.23 0 0 1 .234.406 3.26 3.26 0 0 0 .219.453c.426.625.914 1.102 1.469 1.438.613.352 1.305.645 2.078.875l.766.063 1.813-.375c.582-.125 1.125-.375 1.625-.75.531-.324.961-.816 1.297-1.484l1.094-2.125 1.078-2.125.5-1a9.56 9.56 0 0 0 .422-.984c.301-.625.133-1.094-.5-1.406l-.875-.547a7.16 7.16 0 0 0-.984-.469c-.543-.258-.871-.586-.984-.984s-.094-.812.063-1.25c.426-1.156 1.086-2.062 1.984-2.719.688-.437 1.383-.484 2.094-.141l1.219.563 1.219.563 1.063.531a4.83 4.83 0 0 1 1.016.656c.477.293.914.727 1.313 1.297a1.24 1.24 0 0 1 .328.938c.039.336.023.652-.047.953l-.266.922-1.469 3.203-1.578 3.125-.844 1.641-.875 1.672-2.25 4.297-2.266 4.375c-.105.195-.281.445-.531.75-.48.645-1.121.82-1.922.531a7.17 7.17 0 0 1-.875-.359l-.906-.453c-.5-.25-.852-.605-1.047-1.062-.187-.355-.219-.656-.094-.906.164-.336.055-.543-.328-.625-.055.02-.094.023-.125.016-.023-.012-.059-.008-.109.016-.574.094-1.156.109-1.75.047a8.49 8.49 0 0 1-1.781-.391l-1.141-.391-1.125-.406a3.61 3.61 0 0 1-1.25-.812 12.45 12.45 0 0 1-.984-1.156l-1.047-1.625-.953-1.641a2.23 2.23 0 0 1-.219-.484l-.156-.469-.094-1.062c-.043-.332-.031-.672.031-1.016l.047-1.172.078-1.203.344-1.469.359-1.594.422-1.547a16.89 16.89 0 0 1 .563-1.859l.672-1.766.609-1.484a13.24 13.24 0 0 0 .578-1.531 11.5 11.5 0 0 1 .844-1.734l.891-1.641 1.266-2.297 1.156-2.297a26.18 26.18 0 0 1 1.656-2.828l1.859-2.656 1.625-2.016 1.625-2.016a9.87 9.87 0 0 1 1.469-1.344l1.625-1.109 1.766-.984 1.844-.937c1.863-.906 3.781-1.129 5.75-.672a13.11 13.11 0 0 1 3.422 1.141c1.094.543 1.988 1.375 2.688 2.5a6.23 6.23 0 0 1 .641 1.078 8.59 8.59 0 0 1 .469 1.125c.633 1.461.742 3.027.328 4.703l-.547 2.141a12.48 12.48 0 0 1-.781 1.984l-.797 1.609-.859 1.578c-.148.293-.359.539-.641.734s-.578.352-.891.453a1.31 1.31 0 0 1-1.172-.016l-.656-.328-.656-.328c-1.094-.645-1.359-1.539-.797-2.687l.969-2.172.828-2.25c.125-.352.219-.695.281-1.031.063-.344.086-.703.078-1.078-.148-.695-.43-1.301-.844-1.812-.367-.445-.789-.812-1.266-1.094-.48-.289-.984-.539-1.516-.75-.125-.062-.324-.082-.594-.062a10.57 10.57 0 0 0-1.594.375c-.699.242-1.297.516-1.797.828-.805.449-1.508.918-2.109 1.406a10.91 10.91 0 0 0-1.687 1.719l-1.391 1.922-1.203 1.719-1.203 1.719-.828 1.438-.812 1.422-.609 1.078-.609 1.078s-.016-.004-.047-.016c-.023-.008-.031-.016-.031-.016zm28.8 11.065l-1.375 4.344-1.297 4.391-1.047 3.547-.953 3.547a2.1 2.1 0 0 0-.094.563c-.062.668.211 1.117.828 1.344l1.391.594 1.313.609c.563.313 1.254.543 2.078.688l1.063.375.984.406a.97.97 0 0 1 .375.234 1.36 1.36 0 0 1 .266.328 6.71 6.71 0 0 1 .391.625l.094.281c.039.133.047.25.016.344-.023 1.164-.402 2.328-1.141 3.484-.094.164-.234.316-.422.453a3.21 3.21 0 0 0-.5.438.74.74 0 0 1-.531.047l-1.578-.297a14.1 14.1 0 0 1-1.531-.359l-2.25-.719-2.219-.719a.93.93 0 0 1-.266-.109.49.49 0 0 0-.281-.047 6.78 6.78 0 0 1-1.203-.187l-1.141-.312c-.406-.125-.805-.367-1.187-.719l-.469-.437-.437-.437c-.25-.312-.402-.637-.453-.969a6.07 6.07 0 0 1-.047-1 12.56 12.56 0 0 1 .266-2.453 14.84 14.84 0 0 1 .672-2.328l.875-2.609.766-2.547 2.422-8.078 2.406-8.078 1.297-3.969 1.328-3.906.688-1.984.703-2.078c.145-.344.258-.687.344-1.031a5.43 5.43 0 0 1 .328-.969c.395-1.102.988-2.145 1.781-3.125.539-.719 1.176-.891 1.906-.516a4.2 4.2 0 0 1 .641.281l.563.297c.719.418 1.008 1.07.875 1.953a17.64 17.64 0 0 1-.359 2.219c-.168.711-.414 1.422-.734 2.141a7.24 7.24 0 0 0-.375.969l-.312 1.031-1.391 4.328-1.312 4.328-.875 2.906-.875 2.891zm17.617 7.627l.25-1.344.25-1.344.906-4.375.828-4.328.688-3.516.594-3.453.172-1.422.172-1.453.328-1.672a6.92 6.92 0 0 1 .609-1.641c.27-.383.629-.77 1.078-1.156.164-.125.391-.16.672-.109.32.023.645.063.969.125l.984.172c.219.043.375.133.469.266l.328.469c.164.355.242.813.234 1.375-.043 2.043-.324 4.117-.844 6.219l-.5 2.234-.422 2.313-1.312 7.047-1.297 7.047-.953 5.156-.875 5.219-.656 3.734-.594 3.813-.203.828-.25.813a2.19 2.19 0 0 1-.359.594l-.484.531c-.344.27-.766.414-1.266.438-.5.031-.93-.059-1.281-.266-.086-.055-.168-.102-.25-.141a1.56 1.56 0 0 1-.25-.156c-.855-.344-1.355-1.012-1.5-2l.016-1.094a5.33 5.33 0 0 1 .094-1.016l1.094-5.375 1.094-5.375.625-3.141.609-3.062.094-.516.078-.453s.008.008.031.016h.031zm21.942 25.096c-1.074-.012-2.117-.25-3.125-.719l-.531-.187a3.55 3.55 0 0 1-.5-.219c-.461-.219-.918-.477-1.375-.781-.18-.102-.352-.227-.516-.375l-.422-.391a4.13 4.13 0 0 1-.406-.422 1.94 1.94 0 0 0-.391-.375 6.25 6.25 0 0 0-.594-.844l-.656-.859c-.355-.488-.59-.988-.703-1.5a5.88 5.88 0 0 1-.125-1.625c.031-.469.219-.859.563-1.172l.625-.531.625-.531c.863-.562 1.656-.469 2.375.281a7.47 7.47 0 0 1 .734.797 12.29 12.29 0 0 0 1.422 1.75c.508.512 1.082.969 1.719 1.375.5.305 1.02.461 1.563.469.539 0 1.047-.051 1.516-.156l.75-.266c.27-.102.523-.223.766-.359.531-.258.945-.602 1.25-1.031a7.04 7.04 0 0 0 .766-1.406c.219-.594.352-1.312.406-2.156.051-.937-.031-1.82-.25-2.656s-.539-1.633-.953-2.406c-.637-1.238-1.562-2.457-2.781-3.656l-1.83-1.831a20.07 20.07 0 0 0-1.984-1.687l-3.219-3.125c-.75-.75-1.336-1.57-1.75-2.469-.094-.102-.18-.297-.25-.578l-.375-1.828a17.17 17.17 0 0 1-.281-1.812c-.094-1.082.008-2.227.313-3.437a20.29 20.29 0 0 1 2.984-7.297 3.25 3.25 0 0 1 .703-.906l.859-.766c.688-.52 1.469-1.039 2.344-1.562a5.74 5.74 0 0 1 1.281-.453c.438-.102.863-.164 1.281-.187a2.69 2.69 0 0 1 .844-.078l.844.031a4.92 4.92 0 0 1 1.891.313c.602.219 1.172.527 1.703.922l1.219.922c.406.305.789.625 1.156.969l.938.828a9.81 9.81 0 0 1 .859.953c.176.199.301.492.375.875.145.906-.031 1.652-.531 2.234a3.47 3.47 0 0 1-1.906 1.141c-.574.211-1.105.121-1.594-.266l-.891-.766-.781-.734a3.01 3.01 0 0 0-2.484-1.062c-.605.023-1.203.109-1.797.266s-1.168.453-1.719.891c-1.375 1.188-2.18 2.668-2.406 4.438-.094.793-.078 1.559.047 2.297a15.44 15.44 0 0 0 .563 2.172 1.96 1.96 0 0 0 .422.688l.563.625 1.453 1.297 1.516 1.188a14.16 14.16 0 0 1 1.469 1.203l1.422 1.344c.582.449 1.203 1.047 1.859 1.797l1.094 1.328c.383.438.723.918 1.016 1.438.781 1.23 1.344 2.621 1.688 4.172l.641 3.984c.008.523-.012 1.055-.062 1.594-.043.531-.125 1.047-.25 1.547l-.187.922a5.49 5.49 0 0 1-.266.828c-.594 1.688-1.469 3.117-2.625 4.281l-.703.781a5.1 5.1 0 0 1-.781.688 8.14 8.14 0 0 1-1.625 1.047 6.03 6.03 0 0 1-1.891.594l-1.453.203a5.03 5.03 0 0 1-1.453 0zm22.687-15.494l-.781-6.562-.828-6.484-.672-5.656-.734-5.578-.172-2.203-.094-2.141c-.02-.945.012-1.848.094-2.703.094-.395.277-.82.547-1.281.125-.195.328-.312.609-.344l.828-.094.844-.109c.457-.062.805.078 1.047.422a5.11 5.11 0 0 1 .938 1.844 143.94 143.94 0 0 1 1.469 10.172l.297 2.125a44.5 44.5 0 0 1 .313 2.109 7.93 7.93 0 0 1 .047.469c.02.156.066.328.141.516.145.781.656 1.121 1.531 1.016l2.625-.266 2.609-.328.781-.094a3.57 3.57 0 0 0 .75-.156 3.28 3.28 0 0 0 .625-.297l.563-.359c.227-.156.316-.422.266-.797a6.02 6.02 0 0 1-.203-.969 26.22 26.22 0 0 1-.109-.969l-.578-4.078-.516-4.156-.172-1.422-.187-1.437a7.53 7.53 0 0 1 .125-2.547.49.49 0 0 1 .016-.281c.039-.102.055-.203.047-.297a2.25 2.25 0 0 1 .188-.922l.438-.859c.07-.145.223-.234.453-.266a2.44 2.44 0 0 1 .594-.141c.219-.031.41-.078.578-.141 1.438-.176 2.289.449 2.563 1.875a6.12 6.12 0 0 0 .188.922c.082.293.145.602.188.922a19.77 19.77 0 0 1 .141 1.469l.156 1.547a8.89 8.89 0 0 1 .063 1.063 9.44 9.44 0 0 0 .063 1.109l.547 3.563.563 3.594.406 2.969.391 2.969.531 3.969.609 4.031.469 3.188a87.82 87.82 0 0 1 .469 3.203l.375 3.891.313 3.891.078.969a14.43 14.43 0 0 0 .094.984.58.58 0 0 0-.047.297 1.1 1.1 0 0 1-.016.297c.02.594-.137 1.059-.469 1.391-.336.324-.805.57-1.406.734-.762.199-1.453.094-2.078-.312-.25-.156-.461-.336-.625-.547l-.375-.875c-.105-.27-.172-.566-.203-.891l-.562-4.5-.562-4.562-.578-4.562-.562-4.578-.094-.734c-.031-.25-.086-.492-.156-.734-.242-.77-.758-1.129-1.547-1.078l-1.359.203-1.359.203a60.79 60.79 0 0 1-2.078.375 63.04 63.04 0 0 0-2.062.344l-.281.031-.281.031c-.281.094-.449.203-.5.328-.055.117-.109.305-.172.563a9.56 9.56 0 0 0-.016 2.266l.234 2.297.344 4.078a109.83 109.83 0 0 1 .297 4.063l.328 3.188.313 3.172.141 1.328.047 1.328c.008.387-.117.773-.375 1.156a1.93 1.93 0 0 1-1 .781 9.54 9.54 0 0 1-.875.219 3.72 3.72 0 0 1-.859.078 1.76 1.76 0 0 1-.937-.312 3.39 3.39 0 0 1-.766-.75c-.156-.207-.277-.445-.359-.719-.074-.27-.133-.547-.172-.828a40.8 40.8 0 0 1-.203-1.891l-.187-1.828a4.13 4.13 0 0 1-.031-.516 2.58 2.58 0 0 0-.016-.469l-.562-4.453-.547-4.453h.031c.02-.008.031-.016.031-.016zm49.346-7.383l1.406 3.656 1.391 3.766.469 1.469.375 1.516c.133.805-.168 1.465-.906 1.984a3.9 3.9 0 0 1-1.391.641c-.48.105-.984.059-1.516-.141-.187-.113-.359-.242-.516-.391l-.703-.937a5.05 5.05 0 0 1-.594-.906l-.453-.844-.359-.875-2.125-5.406-2.078-5.406-1.219-3.187-1.187-3.187-1.078-2.625-1.016-2.672-.984-2.219-1-2.219c-.25-.562-.477-1.176-.687-1.844l-2.672-7.719a5.03 5.03 0 0 1-.344-1.984 6.52 6.52 0 0 1 .344-1.984c.105-.375.313-.687.625-.937a3.25 3.25 0 0 1 .922-.547l1.813-.734 1.75-.75.984-.406.891-.375 1.25-.578a10.22 10.22 0 0 0 1.172-.578 8.98 8.98 0 0 1 2.078-.766l2.156-.594c.32-.07.656-.02 1 .156.344.168.594.418.75.75.352.773.633 1.516.844 2.234.238.617.113 1.141-.375 1.578a7.06 7.06 0 0 1-.609.484 6.69 6.69 0 0 0-.594.5l-2.812 1.516-1.766.703a6.22 6.22 0 0 0-1.75.922c-.219.18-.504.289-.859.328-.395.148-.66.496-.797 1.047a2.85 2.85 0 0 0 .031.359 1.41 1.41 0 0 1 .016.375l.453 1.594a9.37 9.37 0 0 0 .594 1.531 5.82 5.82 0 0 1 .422 1.156c.094.383.215.777.359 1.172l.797 2.078.766 2.063a1.68 1.68 0 0 0 .375.578 3.24 3.24 0 0 1 .438.547c.262.305.652.406 1.172.313a19.12 19.12 0 0 0 2.109-.641l2.063-.859 1.313-.453 1.328-.469c.301-.113.594-.078.875.109l.438.406c.156.125.297.289.422.484.207.281.383.594.531.938.156.344.254.711.297 1.094.051.523-.117.934-.5 1.234l-1.437 1.063a6.02 6.02 0 0 1-1.625.766l-1.734.719-1.75.797c-.617.344-.922.867-.922 1.563a4.79 4.79 0 0 0 .094.563l.203.609 1.484 3.953 1.5 3.938h.031c.02-.008.031-.016.031-.016zm14.661-17.221l-1.766-3.203-1.578-3.234-.969-2.187-.906-2.172c-.383-1.02-.687-2.035-.906-3.047s-.375-2.055-.469-3.141l-.156-1.922-.156-1.922a5.88 5.88 0 0 1 .031-1.594c.086-.52.219-1.023.406-1.516.148-.312.227-.547.234-.703a7.74 7.74 0 0 1 .844-1.687 13.24 13.24 0 0 1 1.125-1.453 1.88 1.88 0 0 1 .609-.516l.641-.406 1.375-.641 1.328-.609c.531-.312 1.156-.41 1.875-.297.262.063.438.094.531.094a7.64 7.64 0 0 1 2.656.125 10.07 10.07 0 0 1 2.5.953 17.06 17.06 0 0 1 2.578 1.578 18.98 18.98 0 0 1 2.297 2l1.5 1.484 1.406 1.609 3.344 4.391c.789 1.063 1.52 2.156 2.188 3.281l1.953 3.406a23.57 23.57 0 0 1 1.109 2.5l.984 2.563c.363.98.641 1.953.828 2.922l.547 2.953.281 2.156.313 2.172c.238 1.586.141 3.242-.297 4.969-.262 1.031-.781 1.996-1.562 2.891-.086.043-.133.105-.141.188a6.72 6.72 0 0 1-1.484 1.438 14.16 14.16 0 0 1-1.766 1.047l-.781.297c-.242.086-.516.141-.828.172l-1.531.094-1.547.094c-.543-.008-1.102-.078-1.672-.203a4.35 4.35 0 0 1-1.547-.672l-2.203-1.5-2.234-1.578c-.582-.414-1.125-.867-1.625-1.359a15.48 15.48 0 0 1-1.422-1.562l-1.141-1.328-1.156-1.312a30.66 30.66 0 0 1-2.062-3.047l-.828-1.281-.75-1.281zm5.375-2.203l2.375 3.703a22.54 22.54 0 0 0 2.828 3.406l1.641 1.656c.539.555 1.18.992 1.922 1.313a7.7 7.7 0 0 0 1.078.375l1.047.328.313-.031c1.633-.258 2.984-1.055 4.047-2.391.125-.07.219-.242.281-.516.094-.477.145-.957.156-1.437a4.89 4.89 0 0 0-.156-1.437 29.95 29.95 0 0 0-1.078-3.906l-.625-2c-.242-.676-.523-1.328-.844-1.953l-1.094-2.375-1.141-2.375-2.141-3.734c-.762-1.207-1.621-2.375-2.578-3.5l-2.062-2.437a30.09 30.09 0 0 0-2.266-2.25c-.789-.789-1.629-1.383-2.516-1.781-.832-.383-1.711-.348-2.641.109-.457.156-.879.406-1.266.75-.812.574-1.297 1.324-1.453 2.25l-.078.906-.031.953a13.55 13.55 0 0 0 .188 2.594c.137.836.32 1.672.547 2.516.305.867.652 1.699 1.047 2.5l1.172 2.484 1.656 3.109 1.672 3.172zm37.231-8.069l.984 1.109 1.031 1.156c.832.938 1.504 1.934 2.016 2.984.258.586.367 1.102.328 1.547s-.344.953-.906 1.516a1.85 1.85 0 0 1-.141.125l-.187.156c-1.012.906-2.074.938-3.187.094a11.31 11.31 0 0 1-2.016-1.937 22.07 22.07 0 0 0-1.5-1.875l-1.469-1.797a202.82 202.82 0 0 0-6.625-7.641l-6.719-7.578-2.609-2.875-2.625-2.891-2.047-2.375-2-2.312a20.96 20.96 0 0 1-.703-.828 13.61 13.61 0 0 1-.609-.844 4.86 4.86 0 0 1-.687-1.609 14.67 14.67 0 0 1-.266-1.672c.012-.5.211-.984.594-1.453a9.81 9.81 0 0 1 1.328-1.312l1.469-1.172a79.19 79.19 0 0 1 4.328-3.562 14.23 14.23 0 0 1 1.453-.969l1.531-.859a4.99 4.99 0 0 1 1.391-.406 7.07 7.07 0 0 1 1.375-.078 23.13 23.13 0 0 1 2.047.125 8.9 8.9 0 0 1 1.953.453l1.438.625c.469.199.922.449 1.359.75l.563.359.609.391a9.33 9.33 0 0 1 1.688 1.234l1.531 1.469c.25.211.496.445.734.703a7.8 7.8 0 0 0 .719.719l1.031 1.203.953 1.25.922 1.297.875 1.359a7.92 7.92 0 0 1 .438.734 6.56 6.56 0 0 0 .469.781 18.2 18.2 0 0 0 .5.938 36.56 36.56 0 0 1 .531.984 14.67 14.67 0 0 1 1.094 2.922c.258.992.359 2.055.297 3.188a5.59 5.59 0 0 0-.109.5c-.023.18-.059.383-.109.609-.25.93.086 1.594 1.016 2a21.65 21.65 0 0 0 1.656.766 16.34 16.34 0 0 1 1.609.781l2.734 1.406 2.813 1.469.578.281a3.5 3.5 0 0 1 .578.391 2.3 2.3 0 0 1 .531.297 12.27 12.27 0 0 0 .578.391 13.3 13.3 0 0 0 .5.578l.531.578c.289.492.391 1 .297 1.531-.148.813-.648 1.406-1.5 1.781-.574.262-1.125.367-1.656.313-.531-.062-1.059-.172-1.578-.328a7.03 7.03 0 0 1-.641-.375 7.32 7.32 0 0 0-.672-.375l-1.109-.453a28.3 28.3 0 0 1-1.016-.469l-3.687-1.594-3.625-1.656c-.625-.27-1.289-.305-1.984-.109a3.47 3.47 0 0 0-1.359.688l-1.156 1.047c-.477.5-.488 1.012-.031 1.531a53.39 53.39 0 0 0 1.75 2.125 89.4 89.4 0 0 1 1.781 2.172zm-15.875-17.859l3.281 3.688 2.797 3.141a3.42 3.42 0 0 0 1.438.984c.531.336 1.055.25 1.563-.25a19.71 19.71 0 0 1 1.391-1.484c.5-.488.93-1.035 1.281-1.641a.56.56 0 0 1 .203-.297c1.074-1.27 1.539-2.656 1.391-4.156-.125-1.062-.422-1.988-.891-2.781l-.266-.547a6.25 6.25 0 0 0-.25-.484 12.69 12.69 0 0 1-.859-1.547 8.29 8.29 0 0 0-.922-1.484 18.26 18.26 0 0 0-2.156-2.437 12.48 12.48 0 0 0-2.656-1.922 10.23 10.23 0 0 0-1.172-.609c-.406-.179-.801-.41-1.187-.703a4.43 4.43 0 0 0-1.781-.672c-.617-.086-1.211-.07-1.797.031a14.6 14.6 0 0 0-2.078.531c-.687.23-1.328.574-1.922 1.031a10.96 10.96 0 0 1-1.156.766 4.92 4.92 0 0 0-1.125.875c-.352.305-.551.574-.594.813-.051.23 0 .563.156 1 .117.273.262.484.438.641l.922 1.031c.293.336.617.652.969.953l2.734 3.031 2.25 2.5zm18.718-44.586c.148-.312.305-.594.469-.844.156-.25.391-.441.703-.578a5.22 5.22 0 0 1 .563-.266 1.27 1.27 0 0 1 .531-.125 8.28 8.28 0 0 1 3.141.359 21.56 21.56 0 0 1 2.609.922l2.609 1.078 2.578 1.016 2.625 1.031 2.641 1.047 2.594 1.109 1.75.609 1.703.641 4.219 1.844 4.219 1.813 3.281 1.344 3.188 1.359 1.969.844 1.938.891c.895.406 1.645.918 2.25 1.531.227.262.367.637.422 1.125.051.48-.012.887-.187 1.219 0 0-.008.012-.016.031l-.016.031c-.273.5-.605.844-1 1.031s-.859.305-1.391.344a18.08 18.08 0 0 1-1.516-.062 4.82 4.82 0 0 1-1.469-.391l-2.406-1.016-2.5-1-.062-.031s-.023-.016-.062-.047c-.812-.301-1.434-.07-1.859.688l-.453.875a8.87 8.87 0 0 1-.484.813l-.875 1.453-.844 1.453-.781 1.453-.734 1.391c-.156.242-.207.523-.156.844a4.55 4.55 0 0 0 .359.828 2.16 2.16 0 0 0 .516.656l2.031 2.047 2 2.094a6.76 6.76 0 0 1 .703.766c.227.281.43.594.609.938.25.555.195 1.105-.156 1.656l-.578.875-.672.906c-.262.398-.562.512-.906.344-.43-.113-.812-.285-1.156-.516-.574-.312-1.078-.664-1.516-1.062l-1.359-1.219-3.469-3.406-3.5-3.406-2.766-2.687-2.797-2.703-3.719-3.641-3.687-3.641-2.344-2.484-2.219-2.578-1.594-1.844-1.609-1.75-1.031-1.172a6.02 6.02 0 0 1-.859-1.328c-.508-1-.473-1.953.109-2.859l.234-.344.188-.297zm26.359 19.891l-.031-.016-.031-.031 1-1.891 1.031-1.828.172-.516a5.34 5.34 0 0 0 .109-.562c.094-.395-.031-.727-.375-1l-.578-.375a3.58 3.58 0 0 0-.562-.297l-3.125-1.359-3.109-1.281-5.906-2.344-5.937-2.281c-.125-.07-.219-.098-.281-.078-.219-.094-.301-.008-.25.25a1.04 1.04 0 0 0 .109.234c.055.086.117.152.188.203l1.125 1.188 1.188 1.172 1.438 1.219 1.422 1.234 2.563 2.375 2.547 2.375 2.203 2.125 2.156 2.141.422.313a2.96 2.96 0 0 0 .422.313c.68.336 1.172.219 1.484-.344a1.33 1.33 0 0 1 .281-.484 3.31 3.31 0 0 0 .328-.453zm0 0"/><path d="M321.052 243.406l-7.875-3.266-7.922-3.219a26.71 26.71 0 0 1-2.594-1.234l-2.531-1.422-.578-.5-.594-.516c-.594-.551-.773-1.211-.547-1.984l.531-1.906a12.35 12.35 0 0 1 .703-1.828l.25-.594a2.39 2.39 0 0 0 .156-.562 2.41 2.41 0 0 0 .125-.281l.125-.281c.18-.332.34-.672.484-1.016l.391-.969.984-1.875c.336-.625.734-1.195 1.203-1.719.793-.937 1.734-1.516 2.828-1.734l2.109-.203c.699-.039 1.398.027 2.094.203.313.086.703.121 1.172.109a22.1 22.1 0 0 1 2.438.422c.813.188 1.633.449 2.453.781a10.53 10.53 0 0 0 1.438.578c.489.156.965.359 1.422.609a15.41 15.41 0 0 1 4.297 2.688c.523.563.887 1.148 1.094 1.75.031.055.074.141.125.266s.109.23.172.313c.117.305.328.391.641.266a3.57 3.57 0 0 1 .578-.172 4.33 4.33 0 0 1 .625-.109c.531-.082 1.059-.086 1.578-.016l2.328.094a11.27 11.27 0 0 1 2.297.313c1.711.305 3.293.836 4.75 1.594l3.078 1.578c.977.555 1.926 1.195 2.844 1.922 1.426 1.105 2.586 2.352 3.484 3.734a8.02 8.02 0 0 1 .828 2.094c.176.73.156 1.484-.062 2.266l-.391 1.203c-.148.387-.281.809-.406 1.266l-.781 2.078-.781 2.063a6.78 6.78 0 0 0-.297.797 8.52 8.52 0 0 0-.219.813c-.293.961-.746 1.734-1.359 2.328a.45.45 0 0 0-.25.141l-.187.234c-.312.375-.68.617-1.094.719-.418.094-.863.102-1.344.016a10.37 10.37 0 0 1-1.172-.266l-1.141-.406-6.281-2.641-6.297-2.625-2.422-1.016-2.437-1-.031.047s-.008.027-.031.078zm5.234-7.656l-.312.766-.328.781c-.219.523-.141.938.234 1.25l.375.313.375.313c1.137.773 2.277 1.367 3.422 1.781l2.922 1.094 2.938 1.125c.449.125.914.289 1.391.484l1.469.547c.188.023.359.055.516.094l.531.109c.531.074.949-.133 1.25-.625a2.57 2.57 0 0 1 .125-.297l.078-.234.469-1.125.422-1.172a5.74 5.74 0 0 1 .172-.703l.203-.734c.039-1.102-.273-2.016-.937-2.734a17.99 17.99 0 0 0-2.047-1.844 17.33 17.33 0 0 0-2.266-1.469c-1.945-1.062-3.937-1.535-5.969-1.422l-.828.109c-.301.031-.566.078-.797.141l-.531.234a2.95 2.95 0 0 0-.5.25 3.85 3.85 0 0 0-1.25.781 2.82 2.82 0 0 0-.719 1.203c-.02.199-.078.371-.172.516s-.172.305-.234.469zm-16.359-3.125s-.008.023-.031.063l4.063 1.453 4.016 1.5c.262.105.492.102.688-.016.324-.164.586-.363.781-.594.387-.594.656-1.129.813-1.609.012-.156.055-.281.125-.375a2.07 2.07 0 0 0 .172-.359 2.07 2.07 0 0 1 .219-.578 1.75 1.75 0 0 0 .172-.547c.219-.77.215-1.492-.016-2.172s-.598-1.305-1.109-1.891l-.734-.594a5.27 5.27 0 0 0-.844-.562 16.15 16.15 0 0 0-4.906-2.281l-2-.406a8.8 8.8 0 0 0-2.078-.062 7.15 7.15 0 0 0-1.422.344c-.469.156-.883.434-1.25.828-.562.48-.945.98-1.156 1.5l-.547 1.313-.5 1.375c-.227.574-.047 1 .547 1.281l.844.516.922.516 1.625.688 1.609.672zm37.952-18.528l1.453.328 1.516.328a13.29 13.29 0 0 1 3.391 1.234c.551.313.941.668 1.172 1.063.227.387.281.969.156 1.75l-.047.172-.047.234c-.293 1.324-1.133 1.984-2.516 1.984a11.02 11.02 0 0 1-2.797-.406 19.98 19.98 0 0 0-2.297-.641l-2.25-.562a182.79 182.79 0 0 0-9.859-2.281c-3.301-.676-6.594-1.398-9.875-2.172l-3.828-.797-3.812-.797-3.047-.703-2.984-.687a21.5 21.5 0 0 1-1.047-.266c-.344-.102-.664-.211-.969-.328-.582-.227-1.094-.535-1.531-.922a13.16 13.16 0 0 1-1.187-1.187c-.289-.395-.422-.898-.391-1.516a9.84 9.84 0 0 1 .313-1.844l.484-1.797c.406-1.82.883-3.633 1.422-5.437a15.66 15.66 0 0 1 .609-1.625l.734-1.625a5.35 5.35 0 0 1 .875-1.125c.324-.332.684-.629 1.078-.891a19.63 19.63 0 0 1 1.719-1.078 8.73 8.73 0 0 1 1.844-.797 45.11 45.11 0 0 1 1.531-.344 11.08 11.08 0 0 1 1.563-.203l.656-.031.703-.031c.699-.082 1.398-.082 2.094 0l2.109.281c.324.023.656.07 1 .141s.684.125 1.016.156c.5.105 1.012.23 1.531.375a29.09 29.09 0 0 1 1.516.438c.5.156 1.008.328 1.516.516a31.03 31.03 0 0 1 1.484.563 8.13 8.13 0 0 1 .797.359 5.51 5.51 0 0 0 .859.359 16.63 16.63 0 0 0 .953.453 25.56 25.56 0 0 1 1 .484c.949.492 1.82 1.063 2.609 1.719.781.648 1.48 1.445 2.094 2.391.063.156.137.32.219.484a8.92 8.92 0 0 1 .281.563c.336.887.996 1.219 1.984 1a25.13 25.13 0 0 0 1.797-.344c.586-.145 1.168-.254 1.75-.328l3.047-.453 3.125-.469c.207-.051.422-.086.641-.109a4.87 4.87 0 0 1 .688-.047 2.25 2.25 0 0 1 .625-.062h.688c.227.043.477.094.75.156l.766.172c.531.199.906.547 1.125 1.047.363.73.313 1.508-.156 2.328-.312.555-.699.961-1.156 1.219s-.949.48-1.469.656a15.88 15.88 0 0 1-.75.078 12.29 12.29 0 0 0-.734.094l-1.172.281a10.83 10.83 0 0 1-1.094.219l-3.937.875-3.891.813c-.664.148-1.227.5-1.687 1.063a3.45 3.45 0 0 0-.687 1.359 12.7 12.7 0 0 0-.312 1.516c-.094.688.203 1.109.891 1.266a77.27 77.27 0 0 0 2.656.688c.898.219 1.797.453 2.703.703zm-23.328-5.094l4.813 1.063 4.109.891a3.68 3.68 0 0 0 1.75-.047c.617-.062.98-.441 1.094-1.141a20.99 20.99 0 0 1 .266-2.031c.125-.687.148-1.367.063-2.047a.66.66 0 0 1-.016-.375c.137-1.645-.297-3.035-1.297-4.172-.727-.781-1.508-1.359-2.344-1.734a5.17 5.17 0 0 1-.547-.266 10.57 10.57 0 0 0-.516-.25c-.531-.207-1.062-.453-1.594-.734-.531-.289-1.066-.52-1.609-.687a18.4 18.4 0 0 0-3.187-.687 12.47 12.47 0 0 0-3.281 0c-.426.043-.852.117-1.281.219a5.85 5.85 0 0 1-1.375.125c-.687.043-1.301.215-1.844.516-.539.293-1.023.648-1.453 1.063a16.74 16.74 0 0 0-1.359 1.656 6.78 6.78 0 0 0-.953 1.953 10.18 10.18 0 0 1-.484 1.297c-.187.406-.316.867-.391 1.375-.094.461-.086.797.016 1.016.094.211.328.449.703.719.25.156.496.242.734.25a49.76 49.76 0 0 1 1.344.297 10.71 10.71 0 0 0 1.359.203l3.984.844 3.297.688zm13.234-22.942l-3.641-.203-3.562-.391-2.391-.328-2.312-.406a22.83 22.83 0 0 1-3.062-.844 24.42 24.42 0 0 1-2.922-1.281l-1.703-.875-1.703-.891a6.23 6.23 0 0 1-1.344-.875c-.395-.344-.75-.727-1.062-1.156-.187-.281-.344-.469-.469-.562a7.77 7.77 0 0 1-.984-1.609 11.88 11.88 0 0 1-.625-1.734c-.094-.238-.133-.5-.125-.781l.016-.766.172-1.516.188-1.437c.012-.613.258-1.195.734-1.75.199-.176.32-.312.359-.406.398-.832.906-1.555 1.531-2.172a9.76 9.76 0 0 1 2.141-1.609c.855-.539 1.758-.992 2.703-1.359s1.922-.656 2.922-.875l2.047-.469 2.109-.344 5.5-.5 3.938-.109 3.906.156a22.9 22.9 0 0 1 2.719.391l2.688.531a18.98 18.98 0 0 1 2.938.844l2.766 1.094 2 .906 1.984.891c1.48.637 2.836 1.602 4.063 2.891.742.773 1.281 1.727 1.625 2.859 0 .094.023.168.078.219.25.668.391 1.34.422 2.016s.016 1.371-.047 2.078l-.156.797c-.055.25-.152.516-.297.797l-.719 1.344-.75 1.359c-.289.461-.641.898-1.047 1.313a4.43 4.43 0 0 1-1.406.953l-2.453 1.063-2.516 1.063c-.664.273-1.336.496-2.016.672a15.11 15.11 0 0 1-2.078.359l-1.734.281-1.734.266a30.41 30.41 0 0 1-3.672.125l-1.531.031-1.484-.047zm.984-5.734l4.406-.031a23.48 23.48 0 0 0 4.406-.609l2.266-.5a5.94 5.94 0 0 0 2.125-.937c.336-.219.637-.453.906-.703l.813-.719.156-.281c.637-1.531.672-3.098.109-4.703 0-.145-.086-.312-.266-.5a10.33 10.33 0 0 0-1.141-.906 4.86 4.86 0 0 0-1.297-.625 28.96 28.96 0 0 0-3.891-1.156l-2.031-.547a16 16 0 0 0-2.109-.328l-2.578-.344-2.609-.281-4.297-.172a33.06 33.06 0 0 0-4.344.328l-3.156.438a31.42 31.42 0 0 0-3.125.734c-1.082.25-2.031.652-2.844 1.203-.758.5-1.195 1.266-1.312 2.297-.113.461-.129.949-.047 1.469.074.992.461 1.793 1.156 2.406a6.6 6.6 0 0 0 .719.563l.797.531a13 13 0 0 0 2.297 1.219 25.34 25.34 0 0 0 2.422.859 22.58 22.58 0 0 0 2.672.469l2.734.313 3.5.25 3.563.266zm-27.316-35.953a7 7 0 0 1-.234-.906c-.051-.301-.008-.613.125-.937a3.85 3.85 0 0 1 .203-.562 1.33 1.33 0 0 1 .328-.453 8.17 8.17 0 0 1 2.516-1.875 24.04 24.04 0 0 1 2.563-1.125l2.641-1 2.563-1.016 2.641-1.031 2.641-1.047 2.641-.937 1.688-.766a15.02 15.02 0 0 1 1.703-.703l4.328-1.531 4.328-1.547 3.313-1.266 3.25-1.172 2-.75 2.031-.672c.949-.312 1.855-.445 2.719-.406.336.031.684.203 1.047.516s.602.656.703 1.031c0 0 .008.016.016.047v.031c.148.543.141 1.016-.016 1.422-.164.406-.43.805-.797 1.188-.363.355-.742.688-1.141 1-.406.305-.852.547-1.344.734l-2.437.891-2.516.969-.062.016s-.023.008-.078.016c-.801.336-1.098.934-.891 1.797l.266.906.203.938.359 1.656.359 1.656.422 1.594.422 1.531c.043.273.199.508.469.703a4.52 4.52 0 0 0 .813.359c.273.094.555.137.844.125l2.875.109 2.891.172a6.41 6.41 0 0 1 1.047.063 6.2 6.2 0 0 1 1.078.266c.563.25.902.699 1.016 1.344l.172 1.031a7.04 7.04 0 0 1 .125 1.109c.082.461-.055.75-.406.875a3.75 3.75 0 0 1-1.203.406c-.633.168-1.25.258-1.844.266l-1.828.031-4.859-.109-4.891-.109-3.844-.062-3.875-.078-5.234-.125-5.156-.141-3.437-.203-3.359-.375-2.437-.25-2.359-.187-1.562-.141c-.5-.051-1.008-.18-1.531-.391-1.051-.375-1.672-1.094-1.859-2.156l-.062-.406-.078-.359zm32.844-3.484s-.008.008-.031.016h-.047l-.578-2.047-.484-2.047a4.95 4.95 0 0 1-.234-.5c-.07-.156-.172-.316-.297-.484-.195-.344-.508-.5-.937-.469l-.687.125a3.42 3.42 0 0 0-.609.172l-3.234 1.125-3.141 1.219-5.906 2.313-5.891 2.375c-.145.031-.238.074-.281.125-.219.086-.219.203 0 .359a.73.73 0 0 0 .234.109.86.86 0 0 0 .297.016l1.609.109 1.672.031 1.891-.078 1.875-.094h3.5 3.484l3.031.031 3.063.094c.188-.031.367-.047.531-.047.156-.008.328-.031.516-.062.719-.227 1.008-.656.859-1.281a1.51 1.51 0 0 1-.141-.547 4.59 4.59 0 0 0-.062-.562zm-7.114-23.61l-2.375.891-2.359.891-2.109.766a21.43 21.43 0 0 0-2.078.859l-5 2.188-4.984 1.969-2.5.781-2.391.828a10.58 10.58 0 0 0-1.172.359 9.88 9.88 0 0 1-1.109.359l-1.984.203a5.38 5.38 0 0 1-1.969-.25c-.664-.199-1.109-.586-1.328-1.156l-.75-1.656-.766-1.672a12.15 12.15 0 0 1-.656-1.594c-.187-.555-.336-1.105-.453-1.656l-.5-1.969c-.187-.648-.312-1.312-.375-2-.07-.867.016-1.676.266-2.437l.5-1.437.5-1.422c.25-.664.563-1.305.938-1.922a6.5 6.5 0 0 1 1.328-1.594 8.44 8.44 0 0 0 .844-.859c.25-.301.527-.582.828-.844l1.188-.922 1.25-.937c.18-.062.305-.133.375-.219.531-.445 1.117-.859 1.75-1.234.625-.375 1.262-.707 1.906-1l1.531-.719 1.578-.641 2.813-1.172c.938-.363 1.914-.66 2.922-.891l2.172-.516 2.172-.516c.156 0 .367-.047.625-.141a10.91 10.91 0 0 1 1.734-.375l1.719-.219c.219.023.355.023.406 0 1.781-.281 3.664-.406 5.641-.375a18.21 18.21 0 0 1 5.313.875l1.125.5a5.81 5.81 0 0 1 1.078.688 8.04 8.04 0 0 0 1.063.797c.398.25.762.559 1.094.922 1.125 1.063 1.949 2.277 2.469 3.641l.672 1.734.688 1.797.359 1 .313 1.078c.074.594.055 1.164-.062 1.703s-.41 1.027-.891 1.453c-.914.762-1.852 1.328-2.812 1.703l-2.828 1.203-2.812 1.219-2.25.859-2.328.906c-.133.051-.238.109-.312.172zm-.203-5.937l.031.063.031.063 1.578-.609 1.578-.609 1.766-.672 1.828-.719c.523-.207.906-.547 1.156-1.016s.23-1-.062-1.594l-.312-.812a7.41 7.41 0 0 0-.375-.797 10.43 10.43 0 0 0-.812-1.109 5.59 5.59 0 0 0-1.047-.969l-1.484-.891-1.531-.812a1.43 1.43 0 0 0-.484-.219l-.547-.125a15.97 15.97 0 0 0-2.328-.109l-2.297.172-1.641.344-1.656.328a19.37 19.37 0 0 0-4.219.938l-3.187 1.094-3.187 1.156-2.297.984c-.738.336-1.461.762-2.172 1.281-1.488.938-2.906 2.137-4.25 3.594-.281.313-.531.715-.75 1.203-.477.992-.789 2.008-.937 3.047a15.59 15.59 0 0 0-.109 3.172c.023.988.246 1.832.672 2.531.23.313.406.516.531.609.48.207.969.242 1.469.109l2.828-.984 2.891-1 4.172-1.625 4.219-1.625 1.766-.687 1.844-.719 1.813-.734 1.797-.812 1.859-.703 1.859-.734zm0 0"/></g></svg>