<svg xmlns="http://www.w3.org/2000/svg" width="500" zoomAndPan="magnify" viewBox="0 0 375 328.5" height="438"
    preserveAspectRatio="xMidYMid meet" xmlns:v="https://vecta.io/nano">
    <path fill="#85cbcc"
        d="M14.84 201.449c6.688-13.469 17.801-25.551 18.676-40.539 1.293-21.719-19.508-40.719-16.508-62.254 2.398-17.297 19.598-28.961 36.66-32.742 17.02-3.785 34.82-1.984 52.113-4.43 21.723-3.043 41.875-12.637 61.98-21.352s41.184-16.879 63.086-16.785 45.102 10.191 54.926 29.789c5.855 11.621 6.457 25.18 11.023 37.355 8.578 22.922 29.699 38.23 46.668 55.801 17.016 17.57 31.129 43.348 21.262 65.715-10.746 24.352-42.844 30.301-61.105 49.621-17.062 18.031-22.09 47.73-44.547 58.34-15.266 7.191-33.527 2.582-48.793-4.66s-29.562-17.109-46.023-20.797c-39.383-8.809-81.949 12.727-121.426-1.016C8.43 281.414.223 230.824 14.84 201.449zm0 0" />
    <path
        d="M167.325 228.022c1.258.359 2.516 0 3.773-.359 1.617-.359 3.059-2.336 2.879-3.953l-1.082-3.773-1.617-5.574-1.437-6.828-1.078-4.672-1.437-8.27c-1.078-4.672-2.336-9.523-3.594-14.199l-6.828-26.059-3.238-11.324c-1.258-4.672-2.875-9.164-4.312-13.66-.719-2.875-1.617-5.57-2.156-8.445-.719-3.234-1.258-6.652-2.516-9.707-.18-.539-.18-1.078-.359-1.617-.539-2.336-1.078-4.672-1.797-7.008-.539-1.977-1.437-2.875-3.598-2.695-1.078.18-2.156 0-3.234-.18-1.258-.18-2.516 0-3.773.18-2.875.359-5.93.898-8.984 1.258l-4.855.539c-.898 0-1.617.539-1.977 1.438-.719 1.258-1.437 2.516-1.797 3.773-1.258 4.313-2.156 8.449-3.234 12.762-.359 1.438-.539 2.875-1.078 4.133l-5.934 21.027-4.852 15.996c-1.617 5.934-3.414 11.684-5.031 17.434a152.96 152.96 0 0 0-2.695 12.402 119.39 119.39 0 0 1-2.695 11.504l-2.699 7.906c-1.078 4.133-2.156 8.449-3.414 12.582-.539 1.977-.18 3.414 1.617 4.492.539.359 1.078.719 1.797.719 1.262.18 2.52.359 3.957.359l14.016-.719c1.441 0 2.699-.18 4.137-.359 1.078 0 1.977-.719 2.336-1.797l1.617-3.773c1.078-2.156 1.617-4.496 1.977-6.832.359-2.516.359-1.977 2.516-1.977 3.234 0 6.473 0 9.707-.18 2.516-.18 5.211-.539 7.906-.719 2.516-.18 5.035-.18 7.551-.18.719-.18 1.078.18 1.258.898 0 1.078.359 2.156.539 3.234.719 3.777 2.336 7.371 3.953 10.965.359.539.898 1.078 1.617 1.438 1.438 1.078 3.055 1.078 4.672.898l6.652-.539c.719 0 1.438-.18 2.156-.18 1.617-.18 3.234-.18 4.672-.359zm-38.82-79.078c.539 1.258.719 2.695 1.258 3.953l2.695 7.727c1.617 4.672 2.695 9.707 3.773 14.559.359 1.617 1.078 3.055 1.438 4.672.18.359.18.539.359.898.539 1.797.539 1.797-1.437 1.977-3.414.539-6.828.539-10.242.902h-4.133c-.902 0-1.082 0-.902-1.082.543-3.414 1.082-6.828 1.801-10.242 1.258-6.652 2.695-13.301 4.133-19.77.18-1.258.539-2.516.898-3.594zm58.054 16.891l-.543 17.797-.539 22.465-.359 15.996c-.18 1.977.898 3.414 1.801 4.852.18.359.719.719 1.258.898 1.797.359 3.594 1.078 5.211 1.078 3.594.18 7.188.18 10.605 0s6.828-.539 10.242-.719l14.379-.18c3.234-.18 6.289-.539 9.344-.539l18.156-.359c.898 0 1.797 0 2.336-.719 1.258-1.437 2.156-2.875 2.156-4.852.18-4.137-.539-8.27-.719-12.402 0-1.437 0-3.234-1.617-4.312 0 0 0-.18-.18-.359-.898-1.617-2.695-2.516-4.496-2.156-.719 0-1.437.18-2.156 0-2.156 0-4.492-.18-6.648-.18-3.414.18-6.832.539-10.246.539-6.109.18-12.219.18-18.152.18-1.617.18-1.617 0-1.617-1.437V190.28c-.18-6.648-.18-13.121-.18-19.59 0-2.336.18-2.336 2.516-2.336 4.137-.359 8.27-.539 12.402-.898 3.773-.18 7.367-.719 11.145-1.078h5.211c1.438-.18 2.336-.902 2.336-2.52 0-4.133 0-8.086-.18-12.039 0-1.797-.18-3.598-.359-5.395-.18-1.258-.18-1.258-1.437-1.258h-3.594c-4.855 0-9.887-.18-14.918 0-3.953 0-7.91.18-12.043.18-1.258 0-1.437 0-1.437-1.437l.359-15.277c.18-1.078.18-1.078 1.258-1.258 4.133-.539 8.449-.719 12.582-.898l14.918-.18 10.961-.539c1.441-.18 2.879-.359 3.777-1.617.719-1.078 1.258-2.336 1.078-3.594l-.539-16.715c-.18-3.055-1.797-5.211-5.035-5.391-.539 0-1.258 0-1.617.18-1.797.359-3.414.18-5.031.18-3.414 0-6.828-.18-10.066-.18-2.156 0-4.133-.18-6.109-.18l-22.824.18c-.539 0-1.078.18-1.797.18h-15.098c-2.516.359-3.773 1.617-3.773 4.133-.18.719 0 1.258 0 1.797 0 2.516.18 5.031.18 7.547l-.898 53.559zm0 0"
        fill="#fafafa" />
</svg>